<?xml version="1.0" encoding="UTF-8"?>
<svg width="32px" height="32px" viewBox="0 0 32 32" version="1.1" xmlns="http://www.w3.org/2000/svg" xmlns:xlink="http://www.w3.org/1999/xlink">
    <title>Components / 02 Icon / 32 / Bank</title>
    <g id="Components-/-02-Icon-/-32-/-Bank" stroke="none" stroke-width="1" fill="none" fill-rule="evenodd">
        <path d="M27.4772571,14.4090713 C27.7661942,14.4090713 28,14.1766865 28,13.8877983 L28,11.7971199 C28,11.6128587 27.9030179,11.4418781 27.7442397,11.3479343 L17.5188757,5.27545004 C17.5142692,5.27236268 17.5096626,5.26981439 17.5051051,5.2672661 C16.8695513,4.9150626 16.1528442,4.90437937 15.4805362,5.27442092 L5.25576029,11.3479343 C5.09698211,11.4418291 5,11.6128587 5,11.7971199 L5,13.8877983 C5,14.1766865 5.23380578,14.4090713 5.52274287,14.4090713 L7.09092246,14.4090713 L7.09092246,23.8185942 C5.93772239,23.8185942 5,24.756219 5,25.9092726 L5,27.4773059 C5,27.7661941 5.23380578,28 5.52274287,28 L27.4772571,28 C27.7661942,28 28,27.7662431 28,27.4773059 L28,25.9092726 C28,24.756219 27.0622776,23.8185942 25.9090775,23.8185942 L25.9090775,14.4090713 L27.4772571,14.4090713 Z M26.9545143,25.9090766 L26.9545143,26.9545138 L6.04543673,26.9545138 L6.04543673,25.9090766 C6.04543673,25.3327703 6.51456745,24.8636394 7.09087345,24.8636394 L7.61361632,24.8636394 L25.3863347,24.8636394 L25.9090775,24.8636394 C26.4853835,24.8635904 26.9545143,25.3327213 26.9545143,25.9090766 Z M8.13635918,23.8181532 L8.13635918,14.4090713 L10.2272816,14.4090713 L10.2272816,23.8181532 L8.13635918,23.8181532 Z M11.2727184,23.8181532 L11.2727184,14.4090713 L14.4090775,14.4090713 L14.4090775,23.8181532 L11.2727184,23.8181532 Z M15.4545143,23.8181532 L15.4545143,14.4090713 L17.5454367,14.4090713 L17.5454367,23.8181532 L15.4545143,23.8181532 Z M18.5908735,23.8181532 L18.5908735,14.4090713 L21.7272326,14.4090713 L21.7272326,23.8181532 L18.5908735,23.8181532 Z M22.7727184,23.8181532 L22.7727184,14.4090713 L24.8636408,14.4090713 L24.8636408,23.8181532 L22.7727184,23.8181532 Z M6.04543673,13.3636341 L6.04543673,12.093065 L15.9992116,6.17970201 C16.3249029,6.00053741 16.6709806,6.00102747 16.9926044,6.1761246 L26.9545143,12.093065 L26.9545143,13.3636341 L6.04543673,13.3636341 Z" id="Shape" fill="#04246A"></path>
        <path d="M16.5000176,8 C15.6727731,8 15,8.67277306 15,9.50001757 C15,10.3272621 15.6727731,11 16.5000176,11 C17.3272621,11 18,10.3272269 18,9.50001757 C18,8.6728082 17.3272269,8 16.5000176,8 Z M16.5005037,9.99954319 C16.2248879,9.99954319 16.0005037,9.775159 16.0005037,9.49954319 C16.0005037,9.22392738 16.2248879,8.99954319 16.5005037,8.99954319 C16.7761195,8.99954319 17.0005037,9.22392738 17.0005037,9.49954319 C17.0005037,9.775159 16.7761195,9.99954319 16.5005037,9.99954319 Z" id="Shape" fill="#E20101"></path>
    </g>
</svg>