<svg width="32" height="32" viewBox="0 0 32 32" xmlns="http://www.w3.org/2000/svg">
    <g fill="none" fill-rule="evenodd">
        <path
            d="M6.418 24.837A13.077 13.077 0 0 0 16 29.034c2.749 0 5.376-.845 7.6-2.443a.483.483 0 1 1 .564.784A13.905 13.905 0 0 1 16 30a14.047 14.047 0 0 1-10.292-4.509.482.482 0 0 1 .71-.654zM16 7.647c1.98 0 3.465.597 4.418 1.772 1.341 1.654 1.188 3.943 1.07 4.808.362.288.48.63.51.893.118 1.009-.916 2.09-1.383 2.524-.057 2.053-.878 3.3-1.224 3.738.164 1.686 2.673 2.745 3.46 3.037l-1.084.635c-1.384-.627-3.385-1.874-3.385-3.846 0-.131.052-.256.143-.35.042-.044 1.093-1.171 1.093-3.441a.5.5 0 0 1 .175-.38c.521-.447 1.267-1.328 1.212-1.802-.006-.05-.022-.184-.29-.322a.5.5 0 0 1-.263-.548c.005-.026.535-2.661-.814-4.32-.754-.927-1.977-1.397-3.638-1.397-1.72 0-2.973.48-3.726 1.426-1.316 1.656-.735 4.254-.729 4.28a.5.5 0 0 1-.259.559c-.269.138-.285.273-.29.322-.057.474.69 1.355 1.211 1.802a.5.5 0 0 1 .175.38c0 2.297 1.082 3.43 1.093 3.44a.503.503 0 0 1 .143.35c0 2.866-4.289 4.215-4.472 4.27a.5.5 0 0 1-.293-.955c1.012-.312 3.587-1.468 3.756-3.14-.347-.44-1.167-1.686-1.224-3.738-.467-.433-1.5-1.515-1.383-2.524.03-.26.147-.601.504-.89-.135-.862-.328-3.122.982-4.773.951-1.2 2.47-1.81 4.512-1.81zm6.296-4.155A13.94 13.94 0 0 1 30 16c0 3.128-1.009 6.086-2.918 8.555a.477.477 0 0 1-.676.086.48.48 0 0 1-.087-.676A12.916 12.916 0 0 0 29.034 16a12.98 12.98 0 0 0-7.173-11.646.482.482 0 0 1 .435-.862zM10.594 6.951a.472.472 0 0 1-.133.654 10.037 10.037 0 0 0-4.517 8.394c0 1.004.147 1.996.438 2.946a.47.47 0 0 1-.45.61.472.472 0 0 1-.452-.333A10.988 10.988 0 0 1 5 15.999a10.98 10.98 0 0 1 4.94-9.181.47.47 0 0 1 .654.133zM16 5c5.583 0 10.28 4.176 10.925 9.713a.472.472 0 1 1-.937.108c-.59-5.06-4.884-8.879-9.988-8.879-1.122 0-2.222.184-3.271.544a.471.471 0 1 1-.306-.892A10.953 10.953 0 0 1 15.999 5zM16 2c.764 0 1.529.063 2.273.184a.485.485 0 0 1 .399.555.48.48 0 0 1-.555.397A13.308 13.308 0 0 0 16 2.966 13.016 13.016 0 0 0 4.467 9.919a.482.482 0 1 1-.853-.45A13.978 13.978 0 0 1 16 1.999z"
            fill="#04246A" />
        <path
            d="M26.49 17a.472.472 0 0 1 .402.532c-.753 5.396-5.436 9.465-10.893 9.465-.16 0-.319-.004-.476-.01a.472.472 0 0 1-.451-.492c.01-.26.232-.445.49-.452.146.007.29.011.437.011 4.989 0 9.27-3.72 9.957-8.653A.474.474 0 0 1 26.49 17zM2.497 15.187a.482.482 0 0 1 .472.493l-.004.32c0 2.585.757 5.086 2.188 7.23a.483.483 0 1 1-.803.535A13.94 13.94 0 0 1 2 16l.003-.34c.006-.266.221-.457.494-.472z"
            fill="#E20101" />
    </g>
</svg>