<?xml version="1.0" encoding="UTF-8"?>
<svg width="32px" height="32px" viewBox="0 0 32 32" version="1.1" xmlns="http://www.w3.org/2000/svg" xmlns:xlink="http://www.w3.org/1999/xlink">
    <title>Components / 02 Icon / 32 / Container</title>
    <g id="Components-/-02-Icon-/-32-/-Container" stroke="none" stroke-width="1" fill="none" fill-rule="evenodd">
        <path d="M29.5,5.5 L2.5,5.5 C1.3954305,5.5 0.5,6.3954305 0.5,7.5 L0.5,24.5 C0.5,25.6045695 1.3954305,26.5 2.5,26.5 L29.5,26.5 C30.6045695,26.5 31.5,25.6045695 31.5,24.5 L31.5,7.5 C31.5,6.3954305 30.6045695,5.5 29.5,5.5 Z M2.5,6.5 L29.5,6.5 C30.0522847,6.5 30.5,6.94771525 30.5,7.5 L30.5,24.5 C30.5,25.0522847 30.0522847,25.5 29.5,25.5 L2.5,25.5 C1.94771525,25.5 1.5,25.0522847 1.5,24.5 L1.5,7.5 C1.5,6.94771525 1.94771525,6.5 2.5,6.5 Z" id="Rectangle" fill="#04246A"></path>
        <path d="M25,11.5 C25.2454599,11.5 25.4496084,11.6768752 25.4919443,11.9101244 L25.5,12 L25.5,20 C25.5,20.2761424 25.2761424,20.5 25,20.5 C24.7545401,20.5 24.5503916,20.3231248 24.5080557,20.0898756 L24.5,20 L24.5,12 C24.5,11.7238576 24.7238576,11.5 25,11.5 Z M13,11.5 C13.2454599,11.5 13.4496084,11.6768752 13.4919443,11.9101244 L13.5,12 L13.5,20 C13.5,20.2761424 13.2761424,20.5 13,20.5 C12.7545401,20.5 12.5503916,20.3231248 12.5080557,20.0898756 L12.5,20 L12.5,12 C12.5,11.7238576 12.7238576,11.5 13,11.5 Z M19,11.5 C19.2454599,11.5 19.4496084,11.6768752 19.4919443,11.9101244 L19.5,12 L19.5,20 C19.5,20.2761424 19.2761424,20.5 19,20.5 C18.7545401,20.5 18.5503916,20.3231248 18.5080557,20.0898756 L18.5,20 L18.5,12 C18.5,11.7238576 18.7238576,11.5 19,11.5 Z M7,11.5 C7.24545989,11.5 7.44960837,11.6768752 7.49194433,11.9101244 L7.5,12 L7.5,20 C7.5,20.2761424 7.27614237,20.5 7,20.5 C6.75454011,20.5 6.55039163,20.3231248 6.50805567,20.0898756 L6.5,20 L6.5,12 C6.5,11.7238576 6.72385763,11.5 7,11.5 Z" id="Combined-Shape" fill="#E20101"></path>
    </g>
</svg>