<?xml version="1.0" encoding="UTF-8"?>
<svg width="64px" height="64px" viewBox="0 0 64 64" version="1.1" xmlns="http://www.w3.org/2000/svg" xmlns:xlink="http://www.w3.org/1999/xlink">
    <title>Components / 02 Icon / 64 / Container-3D</title>
    <g id="Components-/-02-Icon-/-64-/-Container-3D" stroke="none" stroke-width="1" fill="none" fill-rule="evenodd">
        <path d="M23.968,50.6414601 L23.968,32.6687143 L58.046,20.0377745 L58.046,38.0085434 L23.968,50.6414601 Z M5.952,26.7160206 L13.102,29.3651769 L13.014,47.306291 L5.952,44.6867895 L5.952,26.7160206 Z M22.014,32.6687143 L22.014,50.6414601 L14.964,48.0298666 L15.052,30.0887524 L22.014,32.6687143 Z M41.008,12.9977406 L56.24,18.644002 L22.992,30.9704865 L7.758,25.3222481 L41.008,12.9977406 Z M59.984,18.5985314 C59.98,18.4996823 59.974,18.4008332 59.938,18.305938 C59.916,18.2486055 59.876,18.2110429 59.846,18.1596413 C59.826,18.1260326 59.81,18.0944009 59.784,18.0627692 C59.676,17.9243804 59.542,17.8156464 59.384,17.752383 C59.376,17.750406 59.374,17.7424981 59.366,17.7405211 L41.35,11.0622749 C41.13,10.9792417 40.884,10.9792417 40.664,11.0622749 L4.634,24.4187672 C4.626,24.4227212 4.624,24.4286521 4.616,24.4326061 C4.456,24.4958695 4.322,24.6046035 4.214,24.7429923 C4.188,24.774624 4.174,24.8062557 4.152,24.8398644 C4.124,24.889289 4.082,24.9288286 4.06,24.9822072 C4.024,25.0810563 4.018,25.1799054 4.014,25.2787545 C4.012,25.2945704 4,25.3084092 4,25.3222481 L4,45.3569865 C4,45.7583139 4.252,46.1201017 4.634,46.2604674 L22.61,52.9248747 L22.612,52.9248747 L22.648,52.9387135 C22.76,52.9802302 22.876,53 22.992,53 C23.108,53 23.224,52.9802302 23.336,52.9387135 L23.372,52.9248747 L23.372,52.9248747 L59.366,39.5802443 C59.746,39.4398786 60,39.0800678 60,38.6787404 L60,18.644002 C60,18.6281861 59.986,18.6163242 59.984,18.5985314 L59.984,18.5985314 Z" id="Fill-1" fill="#04246A"></path>
        <path d="M44.0505082,27.3948513 C44.5940458,27.3988724 45.0288758,27.8432089 45.0248496,28.3840528 L45.0248496,28.3840528 L44.9282207,41.3663179 C44.9241945,41.9051513 44.4833251,42.3414454 43.9438137,42.3414454 L43.9438137,42.3414454 C43.3942368,42.3374243 42.9573937,41.8930878 42.9593998,41.3502333 L42.9593998,41.3502333 L43.0600619,28.3679682 C43.0640881,27.8311454 43.5029444,27.3948513 44.0424558,27.3948513 L44.0424558,27.3948513 Z M16.5169066,37.5448232 C17.0604442,37.5448232 17.4993005,37.9851385 17.4993005,38.527993 L17.4993005,38.527993 L17.4993005,40.793908 C17.4993005,41.3347519 17.0604442,41.7750672 16.5169066,41.7750672 C15.973369,41.7750672 15.5345127,41.3347519 15.5345127,40.793908 L15.5345127,40.793908 L15.5345127,38.527993 C15.5345127,37.9851385 15.973369,37.5448232 16.5169066,37.5448232 Z M49.0371636,25.0955608 C49.5807012,25.099582 50.0155313,25.5439184 50.0135252,26.0847624 L50.0135252,26.0847624 L49.9148762,39.1012072 C49.91085,39.6400405 49.4699806,40.0763347 48.9304692,40.0763347 L48.9304692,40.0763347 C48.3808923,40.0723136 47.9440491,39.6299877 47.9480753,39.0871332 L47.9480753,39.0871332 L48.0467174,26.0686778 C48.0507436,25.531855 48.4895998,25.0955608 49.0291112,25.0955608 L49.0291112,25.0955608 Z M10.984407,35.4148816 C11.5279446,35.4148816 11.9668009,35.8551969 11.9668009,36.3960408 L11.9668009,36.3960408 L11.9668009,38.6599452 C11.9668009,39.2027997 11.5279446,39.643115 10.984407,39.643115 C10.4408694,39.643115 10,39.2027997 10,38.6599452 L10,38.6599452 L10,36.3960408 C10,35.8551969 10.4408694,35.4148816 10.984407,35.4148816 Z M54.0236178,23 C54.5671554,23.0040211 55.0039986,23.4483576 54.9999724,23.9892016 L54.9999724,23.9892016 L54.9013304,36.9694561 C54.8973042,37.5103 54.4564348,37.9445836 53.9169234,37.9445836 L53.9169234,37.9445836 C53.3673465,37.9405625 52.9305033,37.4982366 52.9345295,36.9533715 L52.9345295,36.9533715 L53.0331715,23.9751275 C53.0371977,23.4362942 53.4780671,23 54.0175785,23 L54.0175785,23 Z M29.0899378,33.0554164 C29.6334754,33.0594375 30.0703185,33.5017634 30.0662923,34.0446179 L30.0662923,34.0446179 L29.9676503,47.0248725 C29.9636241,47.5657164 29.5227547,48 28.9832434,48 L28.9832434,48 C28.4336665,47.9979894 27.9968233,47.553653 28.0008495,47.0087879 L28.0008495,47.0087879 L28.0994915,34.0285334 C28.1035177,33.4897 28.5443871,33.0554164 29.0818854,33.0554164 L29.0818854,33.0554164 Z M34.0763919,30.791512 C34.6199295,30.7955332 35.0567727,31.2398696 35.0527465,31.7807136 L35.0527465,31.7807136 L34.9541045,44.7609681 C34.9500783,45.2998015 34.5092089,45.7360956 33.9696975,45.7360956 L33.9696975,45.7360956 C33.4201206,45.7320745 32.9832774,45.287738 32.9873037,44.7448835 L32.9873037,44.7448835 L33.0859457,31.764629 C33.0899719,31.2257956 33.5409068,30.8779666 34.0763919,30.791512 Z M39.064054,28.6605651 C39.6075916,28.6645863 40.0424217,29.1069122 40.0383955,29.6497667 L40.0383955,29.6497667 L39.9417665,42.6280106 C39.9377403,43.1688546 39.496871,43.6051487 38.9573596,43.6051487 L38.9573596,43.6051487 C38.4077827,43.6011276 37.9709395,43.1567911 37.9729457,42.6139366 L37.9729457,42.6139366 L38.0736077,29.6336821 C38.0776339,29.0968593 38.5164902,28.6605651 39.0560016,28.6605651 L39.0560016,28.6605651 Z" id="Fill-17" fill="#E20101"></path>
    </g>
</svg>