<svg width="20" height="20" viewBox="0 0 24 24">
    <path d="M16.5 24h-13A2.503 2.503 0 0 1 1 21.5v-14C1 6.122 2.122 5 3.5 5h1a.5.5 0 0 1 0 1h-1C2.673 6 2 6.673 2 7.5v14c0 .827.673 1.5 1.5 1.5h13c.827 0 1.5-.673 1.5-1.5v-1a.5.5 0 0 1 1 0v1c0 1.378-1.122 2.5-2.5 2.5z"/>
    <path d="M20.5 18h-11A2.503 2.503 0 0 1 7 15.5v-13C7 1.122 8.122 0 9.5 0h11C21.878 0 23 1.122 23 2.5v13c0 1.378-1.122 2.5-2.5 2.5zM9.5 1C8.673 1 8 1.673 8 2.5v13c0 .827.673 1.5 1.5 1.5h11c.827 0 1.5-.673 1.5-1.5v-13c0-.827-.673-1.5-1.5-1.5z"/>
</svg>