<?xml version="1.0" encoding="UTF-8"?>
<svg width="64px" height="64px" viewBox="0 0 64 64" version="1.1" xmlns="http://www.w3.org/2000/svg" xmlns:xlink="http://www.w3.org/1999/xlink">
    <title>Components / 02 Icon / 64 / Credit-Card</title>
    <g id="Components-/-02-Icon-/-64-/-Credit-Card" stroke="none" stroke-width="1" fill="none" fill-rule="evenodd">
        <path d="M46.3068609,38.0770829 C46.5491855,38.0770829 46.785401,38.1207016 47.0114348,38.1996307 C46.6224937,38.8746827 46.3862782,39.6556658 46.3862782,40.4989615 C46.3862782,41.3381029 46.6204574,42.1149319 47.0053258,42.7899838 C46.779292,42.868913 46.5471491,42.9229171 46.3068609,42.9229171 C45.0545113,42.9229171 44.0363409,41.8366028 44.0363409,40.4989615 C44.0363409,39.1633972 45.0545113,38.0770829 46.3068609,38.0770829 M50.6931391,38.0770829 C51.9454887,38.0770829 52.9636591,39.1633972 52.9636591,40.4989615 C52.9636591,41.8366028 51.9454887,42.9229171 50.6931391,42.9229171 C49.4407895,42.9229171 48.422619,41.8366028 48.422619,40.4989615 C48.422619,39.1633972 49.4407895,38.0770829 50.6931391,38.0770829 M46.3068609,45 C47.0908521,45 47.8544799,44.7777521 48.5183271,44.3623356 C49.1597744,44.7590584 49.8969298,45 50.6931391,45 C53.0675125,45 55,42.9810755 55,40.4989615 C55,38.0189245 53.0675125,36 50.6931391,36 C49.8786028,36 49.1251566,36.251327 48.4735276,36.6625894 C47.8137531,36.2554812 47.0827068,36 46.3068609,36 C43.9304511,36 42,38.0189245 42,40.4989615 C42,42.9810755 43.9304511,45 46.3068609,45" id="Fill-5" fill="#E20101"></path>
        <path d="M6,49 L58,49 L58,28.782 L6,28.782 L6,49 Z M6,18.782 L58,18.782 L58,15 L6,15 L6,18.782 Z M6,26.782 L58,26.782 L58,20.782 L6,20.782 L6,26.782 Z M58,13 C59.1,13 60,13.9 60,15 L60,15 L60,49 C60,50.1 59.1,51 58,51 L58,51 L6,51 C4.9,51 4,50.1 4,49 L4,49 L4,15 C4,13.9 4.9,13 6,13 L6,13 Z M24.462,40.67 L11.538,40.67 C10.986,40.67 10.538,41.118 10.538,41.67 C10.538,42.222 10.986,42.67 11.538,42.67 L24.462,42.67 C25.014,42.67 25.462,42.222 25.462,41.67 C25.462,41.118 25.014,40.67 24.462,40.67 Z M24.462,36.7812 L11.538,36.7812 C10.986,36.7812 10.538,37.2292 10.538,37.7812 C10.538,38.3332 10.986,38.7812 11.538,38.7812 L24.462,38.7812 C25.014,38.7812 25.462,38.3332 25.462,37.7812 C25.462,37.2292 25.014,36.7812 24.462,36.7812 Z" id="Fill-7" fill="#04246A"></path>
    </g>
</svg>