<svg xmlns="http://www.w3.org/2000/svg" viewBox="0 0 399.2 399.2">
    <path
        d="M368.111 105.6c0-.4-.4-.8-.4-.8-.4-.8-.8-1.6-1.2-2l-.4-.4-106-100c-.8-.8-1.6-1.2-2.4-1.6-.4 0-.4 0-.8-.4-.8-.4-1.6-.4-2.4-.4h-177.6c-25.6 0-46 20.8-46 46v307.2c0 25.6 20.8 46 46 46h245.2c25.6 0 46-20.8 46-46V108.4v-.4c.4-.8 0-1.6 0-2.4zm-105.2-76l74.4 70h-74.4v-70zm87.6 324c.4 15.6-12.4 28.4-28 28.4h-245.6c-15.6 0-28.4-12.8-28.4-28.4V46.4c0-15.6 12.8-28.4 28.4-28.4h168v90.4c0 4.8 4 8.8 8.8 8.8h96.8v236.4z" />
    <path d="M173.311 88.8h-80.8c-4.8 0-8.8 4-8.8 8.8s4 8.8 8.8 8.8h80.8c4.8 0 8.8-4 8.8-8.8s-4-8.8-8.8-8.8z" />
    <path
        d="M292.911 158.4h-200.4c-4.8 0-8.8 4-8.8 8.8 0 4.8 4 8.8 8.8 8.8h200.4c4.8 0 8.8-4 8.8-8.8 0-4.8-4-8.8-8.8-8.8z" />
    <path d="M292.911 216.8h-200.4c-4.8 0-8.8 4-8.8 8.8s4 8.8 8.8 8.8h200.4c4.8 0 8.8-4 8.8-8.8s-4-8.8-8.8-8.8z" />
    <path d="M292.911 274.8h-200.4c-4.8 0-8.8 4-8.8 8.8s4 8.8 8.8 8.8h200.4c4.8 0 8.8-4 8.8-8.8s-4-8.8-8.8-8.8z" />
    </svg>