<?xml version="1.0" encoding="UTF-8"?>
<svg width="32px" height="32px" viewBox="0 0 32 32" version="1.1" xmlns="http://www.w3.org/2000/svg" xmlns:xlink="http://www.w3.org/1999/xlink">
    <title>Components / 02 Icon / 32 / Document-Dollar</title>
    <g id="Components-/-02-Icon-/-32-/-Document-Dollar" stroke="none" stroke-width="1" fill="none" fill-rule="evenodd">
        <path d="M4.9788,30 C3.8878,30 2.9998,29.145 2.9998,28.093 L2.9998,3.907 C2.9998,2.855 3.8878,2 4.9788,2 L23.0208,2 C24.1128,2 24.9998,2.855 24.9998,3.907 L24.9998,12.176 C24.9998,12.452 24.7788,12.675 24.5038,12.675 C24.2288,12.675 24.0068,12.452 24.0068,12.176 L24.0068,3.907 C24.0068,3.406 23.5648,2.998 23.0208,2.998 L4.9788,2.998 C4.4348,2.998 3.9928,3.406 3.9928,3.907 L3.9928,28.093 C3.9928,28.594 4.4348,29.002 4.9788,29.002 L23.0208,29.002 C23.5648,29.002 24.0068,28.594 24.0068,28.093 L24.0068,26.431 C24.0068,26.154 24.2288,25.932 24.5038,25.932 C24.7788,25.932 24.9998,26.154 24.9998,26.431 L24.9998,28.093 C24.9998,29.145 24.1128,30 23.0208,30 L4.9788,30 Z M10.5108,15.949 L8.3288,15.949 C8.0538,15.949 7.8328,15.725 7.8328,15.449 C7.8328,15.174 8.0538,14.95 8.3288,14.95 L15.5108,14.95 C15.7858,14.95 16.0078,15.174 16.0078,15.449 C16.0078,15.725 15.7858,15.949 15.5108,15.949 L10.5108,15.949 Z M10.5128,20.384 L8.3298,20.384 C8.0558,20.384 7.8328,20.161 7.8328,19.885 C7.8328,19.61 8.0558,19.386 8.3298,19.386 L15.5128,19.386 C15.7878,19.386 16.0098,19.61 16.0098,19.885 C16.0098,20.161 15.7878,20.384 15.5128,20.384 L10.5128,20.384 Z M19.6718,11.514 L8.3288,11.514 C8.0548,11.514 7.8318,11.29 7.8318,11.015 C7.8318,10.739 8.0548,10.515 8.3288,10.515 L19.6718,10.515 C19.9458,10.515 20.1678,10.739 20.1678,11.015 C20.1678,11.29 19.9458,11.514 19.6718,11.514 L19.6718,11.514 Z M19.6718,7.078 L8.3288,7.078 C8.0548,7.078 7.8318,6.854 7.8318,6.579 C7.8318,6.303 8.0548,6.079 8.3288,6.079 L19.6718,6.079 C19.9458,6.079 20.1678,6.303 20.1678,6.579 C20.1678,6.854 19.9458,7.078 19.6718,7.078 L19.6718,7.078 Z M10.5128,24.819 L8.3298,24.819 C8.0558,24.819 7.8328,24.596 7.8328,24.32 C7.8328,24.045 8.0558,23.821 8.3298,23.821 L15.5128,23.821 C15.7878,23.821 16.0098,24.045 16.0098,24.32 C16.0098,24.596 15.7878,24.819 15.5128,24.819 L10.5128,24.819 Z" id="Fill-1" fill="#04246A"></path>
        <path d="M24.4778,21.4888 C24.4778,21.1708 24.3768,20.9078 24.1748,20.6998 C23.9728,20.4918 23.6358,20.3048 23.1648,20.1378 C22.6928,19.9718 22.3258,19.8178 22.0638,19.6758 C21.1908,19.2068 20.7548,18.5148 20.7548,17.5968 C20.7548,16.9758 20.9438,16.4648 21.3228,16.0648 C21.7008,15.6638 22.2128,15.4268 22.8608,15.3508 L22.8608,14.1278 L23.7588,14.1278 L23.7588,15.3628 C24.4108,15.4558 24.9148,15.7328 25.2698,16.1908 C25.6248,16.6498 25.8028,17.2458 25.8028,17.9788 L24.4448,17.9788 C24.4448,17.5078 24.3388,17.1358 24.1268,16.8648 C23.9158,16.5928 23.6278,16.4578 23.2648,16.4578 C22.9058,16.4578 22.6248,16.5548 22.4228,16.7498 C22.2208,16.9448 22.1198,17.2228 22.1198,17.5868 C22.1198,17.9118 22.2198,18.1728 22.4198,18.3698 C22.6208,18.5658 22.9598,18.7528 23.4388,18.9278 C23.9178,19.1038 24.2948,19.2668 24.5678,19.4168 C24.8408,19.5668 25.0718,19.7378 25.2588,19.9308 C25.4458,20.1238 25.5898,20.3448 25.6908,20.5958 C25.7918,20.8468 25.8428,21.1408 25.8428,21.4778 C25.8428,22.1108 25.6488,22.6228 25.2618,23.0158 C24.8738,23.4088 24.3338,23.6408 23.6418,23.7128 L23.6418,24.8068 L22.7488,24.8068 L22.7488,23.7178 C22.0068,23.6358 21.4368,23.3698 21.0388,22.9208 C20.6398,22.4708 20.4408,21.8768 20.4408,21.1348 L21.8048,21.1348 C21.8048,21.6068 21.9238,21.9718 22.1618,22.2298 C22.3998,22.4888 22.7358,22.6178 23.1698,22.6178 C23.5968,22.6178 23.9208,22.5148 24.1438,22.3088 C24.3668,22.1028 24.4778,21.8298 24.4778,21.4888" id="Fill-4" fill="#E20101"></path>
    </g>
</svg>