<?xml version="1.0" encoding="UTF-8"?>
<svg width="64px" height="64px" viewBox="0 0 64 64" version="1.1" xmlns="http://www.w3.org/2000/svg" xmlns:xlink="http://www.w3.org/1999/xlink">
    <title>Components / 02 Icon / 64 / Document-Holder</title>
    <g id="Components-/-02-Icon-/-64-/-Document-Holder" stroke="none" stroke-width="1" fill="none" fill-rule="evenodd">
        <path d="M29.9185941,43.1778 L42.4030231,43.1778 C42.9579312,43.1778 43.4046622,42.7418 43.4046622,42.2038 C43.4046622,41.6658 42.9579312,41.2298 42.4030231,41.2298 L29.9185941,41.2298 C29.3656893,41.2298 28.916955,41.6658 28.916955,42.2038 C28.916955,42.7418 29.3656893,43.1778 29.9185941,43.1778 M50.9950829,4 C52.6517938,4 54,5.31 54,6.92 L54,6.92 L54,57.08 C54,58.69 52.6517938,60 50.9950829,60 L50.9950829,60 L13.0049171,60 C11.3482062,60 10,58.69 10,57.08 L10,57.08 L10,6.92 C10,5.31 11.3482062,4 13.0049171,4 L13.0049171,4 Z M20.214715,5.948 L13.0049171,5.948 C12.4520124,5.948 12.0032781,6.384 12.0032781,6.92 L12.0032781,6.92 L12.0032781,57.08 C12.0032781,57.616 12.4520124,58.052 13.0049171,58.052 L13.0049171,58.052 L50.9950829,58.052 C51.5479876,58.052 51.9967219,57.616 51.9967219,57.08 L51.9967219,57.08 L51.9967219,6.92 C51.9967219,6.384 51.5479876,5.948 50.9950829,5.948 L50.9950829,5.948 L43.7832817,5.948 L43.7832817,7.952 L47.0225824,7.952 C48.6792934,7.952 50.0274995,9.262 50.0274995,10.872 L50.0274995,10.872 L50.0274995,52.116 C50.0274995,53.726 48.6792934,55.036 47.0225824,55.036 L47.0225824,55.036 L16.9774176,55.036 C15.3207066,55.036 13.9725005,53.726 13.9725005,52.116 L13.9725005,52.116 L13.9725005,10.872 C13.9725005,9.262 15.3207066,7.952 16.9774176,7.952 L16.9774176,7.952 L20.214715,7.952 L20.214715,5.948 Z M20.214715,9.898 L16.9774176,9.898 C16.4245128,9.898 15.9757785,10.336 15.9757785,10.872 L15.9757785,10.872 L15.9757785,52.116 C15.9757785,52.65 16.4245128,53.088 16.9774176,53.088 L16.9774176,53.088 L47.0225824,53.088 C47.5734839,53.088 48.0242215,52.65 48.0242215,52.116 L48.0242215,52.116 L48.0242215,10.872 C48.0242215,10.336 47.5734839,9.898 47.0225824,9.898 L47.0225824,9.898 L43.7832817,9.898 L43.7832817,11.038 C43.7832817,13.398 41.8080495,15.32 39.3780732,15.32 L39.3780732,15.32 L24.6219268,15.32 C22.1919505,15.32 20.214715,13.398 20.214715,11.038 L20.214715,11.038 L20.214715,9.898 Z M42.4030231,32.4056 C42.9579312,32.4056 43.4046622,32.8416 43.4046622,33.3796 C43.4046622,33.9176 42.9579312,34.3536 42.4030231,34.3536 L42.4030231,34.3536 L29.9185941,34.3536 C29.3656893,34.3536 28.916955,33.9176 28.916955,33.3796 C28.916955,32.8416 29.3656893,32.4056 29.9185941,32.4056 L29.9185941,32.4056 Z M42.4030231,23.5794 C42.9579312,23.5794 43.4046622,24.0154 43.4046622,24.5534 C43.4046622,25.0914 42.9579312,25.5274 42.4030231,25.5274 L42.4030231,25.5274 L29.9185941,25.5274 C29.3656893,25.5274 28.916955,25.0914 28.916955,24.5534 C28.916955,24.0154 29.3656893,23.5794 29.9185941,23.5794 L29.9185941,23.5794 Z M41.7800036,9.898 L22.2179931,9.898 L22.2179931,11.038 C22.2179931,12.326 23.2957567,13.372 24.6219268,13.372 L24.6219268,13.372 L39.3780732,13.372 C40.70224,13.372 41.7800036,12.326 41.7800036,11.038 L41.7800036,11.038 L41.7800036,9.898 Z M41.7800036,5.948 L22.2179931,5.948 L22.2179931,7.952 L41.7800036,7.952 L41.7800036,5.948 Z" id="Fill-15" fill="#04246A"></path>
        <path d="M23,35.2751627 C21.9462702,35.2751627 21.0865936,34.480804 21.0865936,33.4993032 C21.0865936,32.5197933 21.9462702,31.7234437 23,31.7234437 C24.0537298,31.7234437 24.9134064,32.5197933 24.9134064,33.4993032 C24.9134064,34.480804 24.0537298,35.2751627 23,35.2751627 M23,38.5700589 C25.2055295,38.5700589 27,40.2364202 27,42.2830386 C27,44.3336386 25.2055295,46 23,46 C20.7944705,46 19,44.3336386 19,42.2830386 C19,40.2364202 20.7944705,38.5700589 23,38.5700589 Z M23,40.50917 C21.9462702,40.50917 21.0865936,41.3055195 21.0865936,42.2830386 C21.0865936,43.2645394 21.9462702,44.0608889 23,44.0608889 C24.0537298,44.0608889 24.9134064,43.2645394 24.9134064,42.2830386 C24.9134064,41.3055195 24.0537298,40.50917 23,40.50917 Z M23,29.7843326 C25.2055295,29.7843326 27,31.4526849 27,33.4993032 C27,35.5499032 25.2055295,37.2142738 23,37.2142738 C20.7944705,37.2142738 19,35.5499032 19,33.4993032 C19,31.4526849 20.7944705,29.7843326 23,29.7843326 Z M23,21 C25.2055295,21 27,22.6663614 27,24.7149706 C27,26.7635798 25.2055295,28.4299411 23,28.4299411 C20.7944705,28.4299411 19,26.7635798 19,24.7149706 C19,22.6663614 20.7944705,21 23,21 Z M23,22.9391111 C21.9462702,22.9391111 21.0865936,23.7354606 21.0865936,24.7149706 C21.0865936,25.6964714 21.9462702,26.49083 23,26.49083 C24.0537298,26.49083 24.9134064,25.6964714 24.9134064,24.7149706 C24.9134064,23.7354606 24.0537298,22.9391111 23,22.9391111 Z" id="Fill-8" fill="#E20101"></path>
    </g>
</svg>