<?xml version="1.0" encoding="UTF-8"?>
<svg width="32px" height="32px" viewBox="0 0 32 32" version="1.1" xmlns="http://www.w3.org/2000/svg" xmlns:xlink="http://www.w3.org/1999/xlink">
    <title>Components / 02 Icon / 32 / Document-Check</title>
    <g id="Components-/-02-Icon-/-32-/-Document-Check" stroke="none" stroke-width="1" fill="none" fill-rule="evenodd">
        <path d="M4.9789,29.9998 C3.8879,29.9998 2.9999,29.1448 2.9999,28.0928 L2.9999,3.9068 C2.9999,2.8548 3.8879,1.9998 4.9789,1.9998 L23.0209,1.9998 C24.1119,1.9998 24.9999,2.8548 24.9999,3.9068 L24.9999,15.501 C24.9999,15.777 24.7789,16 24.5029,16 C24.2289,16 24.0069,15.777 24.0069,15.501 L24.0069,3.9068 C24.0069,3.4058 23.5649,2.9978 23.0209,2.9978 L4.9789,2.9978 C4.4349,2.9978 3.9929,3.4058 3.9929,3.9068 L3.9929,28.0928 C3.9929,28.5938 4.4349,29.0018 4.9789,29.0018 L23.0209,29.0018 C23.5649,29.0018 24.0069,28.5938 24.0069,28.0928 L24.0069,26.4308 C24.0069,26.1538 24.2289,25.9318 24.5029,25.9318 C24.7789,25.9318 24.9999,26.1538 24.9999,26.4308 L24.9999,28.0928 C24.9999,29.1448 24.1119,29.9998 23.0209,29.9998 L4.9789,29.9998 Z M10.5109,15.9488 L8.3289,15.9488 C8.0539,15.9488 7.8329,15.7258 7.8329,15.4488 C7.8329,15.1738 8.0539,14.9498 8.3289,14.9498 L19.5276841,14.9498 C19.8016841,14.9498 20.0246841,15.1738 20.0246841,15.4488 C20.0246841,15.7258 19.8016841,15.9488 19.5276841,15.9488 L10.5109,15.9488 Z M10.5129,20.3838 L8.3299,20.3838 C8.0559,20.3838 7.8329,20.1608 7.8329,19.8848 C7.8329,19.6098 8.0559,19.3858 8.3299,19.3858 L15.5129,19.3858 C15.7869,19.3858 16.0099,19.6098 16.0099,19.8848 C16.0099,20.1608 15.7869,20.3838 15.5129,20.3838 L10.5129,20.3838 Z M19.6709,11.5138 L8.3289,11.5138 C8.0539,11.5138 7.8319,11.2898 7.8319,11.0148 C7.8319,10.7388 8.0539,10.5148 8.3289,10.5148 L19.6709,10.5148 C19.9449,10.5148 20.1679,10.7388 20.1679,11.0148 C20.1679,11.2898 19.9449,11.5138 19.6709,11.5138 L19.6709,11.5138 Z M19.6709,7.0778 L8.3289,7.0778 C8.0539,7.0778 7.8319,6.8538 7.8319,6.5788 C7.8319,6.3028 8.0539,6.0788 8.3289,6.0788 L19.6709,6.0788 C19.9449,6.0788 20.1679,6.3028 20.1679,6.5788 C20.1679,6.8538 19.9449,7.0778 19.6709,7.0778 L19.6709,7.0778 Z M10.5129,24.8188 L8.3299,24.8188 C8.0559,24.8188 7.8329,24.5968 7.8329,24.3198 C7.8329,24.0448 8.0559,23.8208 8.3299,23.8208 L15.5129,23.8208 C15.7869,23.8208 16.0099,24.0448 16.0099,24.3198 C16.0099,24.5968 15.7869,24.8188 15.5129,24.8188 L10.5129,24.8188 Z" id="Fill-1" fill="#04246A"></path>
        <path d="M23.0629,23.8973 L18.9059,19.7393 C18.7109,19.5433 18.7109,19.2273 18.9059,19.0323 C19.1019,18.8363 19.4179,18.8363 19.6129,19.0323 L23.4169,22.8363 L29.8679,16.3853 C30.0629,16.1893 30.3799,16.1893 30.5749,16.3853 C30.7709,16.5803 30.7709,16.8973 30.5749,17.0923 L23.7709,23.8973 C23.6769,23.9903 23.5499,24.0433 23.4169,24.0433 C23.2839,24.0433 23.1569,23.9903 23.0629,23.8973 Z" id="Fill-4" fill="#E20101"></path>
    </g>
</svg>