<svg width="14px" height="10px" viewBox="0 0 14 10" version="1.1" xmlns="http://www.w3.org/2000/svg" xmlns:xlink="http://www.w3.org/1999/xlink">
    <title>Email</title>
    <g id="Page-1" stroke="none" stroke-width="1" fill="none" fill-rule="evenodd">
        <g id="A3-Copy-15" transform="translate(-674.000000, -253.000000)" fill="#04246A">
            <g id="Icon/16/2-Copy-25" transform="translate(674.000000, 253.000000)">
                <path d="M9.5498,4.90982 L13.0098,1.78982 L13.0298,8.18982 L9.5498,4.90982 Z M1.7098,8.89982 L5.5298,5.38982 L8.6098,5.38982 L12.3098,8.89982 L1.7098,8.89982 Z M0.9998,8.19982 L0.9798,1.63982 L4.5898,4.88982 L0.9998,8.19982 Z M12.3498,1.02982 L8.6198,4.38982 L5.5298,4.38982 L1.7698,0.99982 L12.3498,1.02982 Z M13.8598,0.34982 C13.8098,0.28982 13.7298,0.23982 13.6498,0.21982 C13.6198,0.18982 13.5898,0.16982 13.5498,0.13982 L13.4298,0.07982 L13.4298,0.08982 C13.3598,0.04982 13.2898,0.02982 13.2098,0.02982 L0.8798,-0.00018 C0.7298,-0.00018 0.5998,0.06982 0.5098,0.16982 C0.4398,0.17982 0.3798,0.19982 0.3298,0.23982 C0.2998,0.25982 0.2798,0.27982 0.2498,0.30982 C0.2398,0.31982 0.2398,0.32982 0.2298,0.33982 C0.0798,0.49982 -0.0002,0.70982 -0.0002,0.91982 L-0.0002,8.94982 C-0.0002,9.14982 0.0798,9.31982 0.1998,9.46982 C0.2198,9.49982 0.2298,9.52982 0.2498,9.55982 C0.2598,9.56982 0.2798,9.56982 0.2798,9.57982 C0.4798,9.76982 0.7598,9.89982 1.0698,9.89982 L12.9298,9.89982 C13.2398,9.89982 13.5198,9.77982 13.7098,9.58982 C13.7198,9.57982 13.7398,9.57982 13.7498,9.56982 C13.7798,9.52982 13.7998,9.48982 13.8198,9.44982 C13.9298,9.29982 13.9998,9.13982 13.9998,8.94982 L13.9998,0.91982 C13.9998,0.85982 13.9898,0.79982 13.9798,0.74982 C13.9898,0.60982 13.9598,0.45982 13.8598,0.34982 Z" id="Fill-1"/>
            </g>
        </g>
    </g>
</svg>