<?xml version="1.0" encoding="UTF-8"?>
<svg width="32px" height="32px" viewBox="0 0 32 32" version="1.1" xmlns="http://www.w3.org/2000/svg" xmlns:xlink="http://www.w3.org/1999/xlink">
    <title>Components / 02 Icon / 32 / Envelope-Open</title>
    <g id="Components-/-02-Icon-/-32-/-Envelope-Open" stroke="none" stroke-width="1" fill="none" fill-rule="evenodd">
        <path d="M18.0599,10.7597 L9.8599,10.7597 C9.5799,10.7597 9.3599,10.9807 9.3599,11.2597 C9.3599,11.5397 9.5799,11.7597 9.8599,11.7597 L18.0599,11.7597 C18.3399,11.7597 18.5599,11.5397 18.5599,11.2597 C18.5599,10.9807 18.3399,10.7597 18.0599,10.7597 M22.4599,13.6007 L9.8599,13.6007 C9.5799,13.6007 9.3599,13.8207 9.3599,14.1007 C9.3599,14.3797 9.5799,14.6007 9.8599,14.6007 L22.4599,14.6007 C22.7299,14.6007 22.9599,14.3797 22.9599,14.1007 C22.9599,13.8207 22.7299,13.6007 22.4599,13.6007 M22.5799,16.4597 L21.4899,17.4407 L10.8199,17.4407 L9.7299,16.4597 C9.7699,16.4497 9.8099,16.4407 9.8599,16.4407 L22.4599,16.4407 C22.4999,16.4407 22.5399,16.4497 22.5799,16.4597" id="Fill-1" fill="#E20101"></path>
        <path d="M28.9998,27.7304 L20.4998,19.6694 L28.9998,12.0094 L28.9998,27.7304 Z M12.7298,19.1604 L10.8198,17.4404 L9.7298,16.4594 L5.8698,12.9804 L5.8698,8.5304 L26.5498,8.5304 L26.5498,12.8794 L22.5798,16.4594 L21.4898,17.4404 L19.5698,19.1694 L12.7298,19.1604 Z M2.9998,27.7504 L2.9998,11.7404 L11.7898,19.6604 L2.9998,27.7504 Z M3.7798,10.8504 L4.8698,10.2704 L4.8698,12.0704 L3.7398,11.0604 L3.6198,10.9404 L3.7798,10.8504 Z M16.3398,4.0704 L22.4598,7.5304 L9.9298,7.5304 L16.3398,4.0704 Z M27.5498,10.4104 L28.6098,11.0094 L27.5498,11.9694 L27.5498,10.4104 Z M29.9498,11.0604 L29.9498,11.0494 C29.9698,10.9694 29.9698,10.8894 29.9498,10.7994 C29.9398,10.7594 29.9298,10.7094 29.8998,10.6794 C29.8898,10.6394 29.8698,10.6104 29.8398,10.5804 C29.8298,10.5704 29.8298,10.5704 29.8198,10.5704 C29.7798,10.5304 29.7398,10.5004 29.6898,10.4804 L29.3198,10.2704 C29.2698,10.2304 29.1998,10.2004 29.1398,10.1694 C29.1298,10.1694 29.1298,10.1604 29.1198,10.1604 L27.5498,9.2594 L27.5498,7.5304 L24.4898,7.5304 L16.5898,3.0604 C16.4398,2.9804 16.2598,2.9804 16.1098,3.0604 L7.8298,7.5304 L4.8698,7.5304 L4.8698,9.1294 L3.1598,10.0494 L2.5098,10.4004 C2.4898,10.4104 2.4698,10.4194 2.4598,10.4404 C2.4398,10.4504 2.4198,10.4694 2.3998,10.4904 L2.3898,10.4904 C2.3798,10.5004 2.3798,10.5004 2.3798,10.5094 C2.3698,10.5204 2.3698,10.5304 2.3598,10.5404 C2.1198,10.7804 1.9998,11.0894 1.9998,11.4194 L1.9998,28.0894 C1.9998,28.4104 2.1298,28.7094 2.3498,28.9504 C2.3698,28.9694 2.3798,28.9904 2.3998,29.0094 C2.4198,29.0304 2.4398,29.0604 2.4598,29.0704 C2.7598,29.3504 3.1998,29.5304 3.6898,29.5304 L11.4498,29.5304 L11.4498,29.5204 L15.2898,29.5204 L15.2898,28.5204 L11.4498,28.5204 L11.4498,28.5304 L3.6398,28.5304 L12.7398,20.1604 L19.5598,20.1694 L28.3898,28.5204 C28.3698,28.5304 28.3398,28.5304 28.3098,28.5304 L15.2998,28.5304 L15.2998,29.5304 L28.3098,29.5304 C28.7998,29.5304 29.2398,29.3504 29.5398,29.0704 C29.5598,29.0604 29.5798,29.0404 29.5998,29.0094 C29.6198,28.9904 29.6298,28.9694 29.6498,28.9504 C29.8698,28.7094 29.9998,28.4104 29.9998,28.0894 L29.9998,11.4194 C29.9998,11.2994 29.9798,11.1794 29.9498,11.0604 L29.9498,11.0604 Z" id="Fill-3" fill="#04246A"></path>
    </g>
</svg>