<svg width="64px" height="64px" viewBox="0 0 64 64">
    <g stroke="none" stroke-width="1" fill="none" fill-rule="evenodd">
        <path d="M23.6016589,18.3466994 L24.6547582,20.8758697 C24.8703049,21.3993587 24.6239658,21.998805 24.0984426,22.218465 C23.5811306,22.4299135 22.9776,22.1876716 22.7579477,21.6621297 L21.7069012,19.1350122 C21.3373926,18.2440545 20.2966102,17.8191046 19.4097897,18.1824676 L16.6631096,19.321826 C16.2299635,19.4983752 15.8912473,19.8391563 15.7085458,20.2784764 C15.5340557,20.7034263 15.5361085,21.1899631 15.7147043,21.635442 L16.4475629,23.4029872 C16.6282116,23.8382016 16.4886194,24.3411616 16.1088468,24.6224086 C14.7847745,25.5995881 13.6126113,26.7717928 12.6231495,28.1082294 C12.3419125,28.4839098 11.8348646,28.6214539 11.4058242,28.4449047 L9.6280775,27.7079143 C9.20314268,27.5313651 8.7166231,27.533418 8.2691072,27.7099672 C7.8462252,27.8824107 7.50545621,28.2231917 7.32275476,28.6645648 L6.18343676,31.4113423 C6.00689379,31.8424509 6.00894661,32.3289877 6.18754241,32.7724137 C6.36203255,33.1932578 6.70280154,33.531986 7.14415897,33.7187997 L8.91574715,34.4537372 C9.35299892,34.6343922 9.60960208,35.0901356 9.53775319,35.5581963 C9.28730851,37.1923031 9.28730851,38.8469389 9.53775319,40.4789928 C9.60960208,40.9470536 9.35299892,41.4027969 8.91574715,41.583452 L7.13800049,42.3224952 C6.24707434,42.6940698 5.81803387,43.7246246 6.18548958,44.6196881 L7.32275476,47.3274606 C7.69021048,48.2286828 8.72072875,48.6536327 9.62191903,48.2841111 L11.39556,47.5491736 C11.8287062,47.3746772 12.3337012,47.5081156 12.6149382,47.8879017 C13.5900302,49.212021 14.7642462,50.3842257 16.0985826,51.3716697 C16.4804081,51.6529167 16.6179474,52.1558767 16.4372988,52.5910911 L15.7003345,54.3689008 C15.5237916,54.8000093 15.5237916,55.2803875 15.7044402,55.7258663 C15.8768775,56.1508162 16.2176465,56.4895444 16.6590039,56.6743052 L19.4036313,57.8136636 C20.3007159,58.1790795 21.3271285,57.7520767 21.6945842,56.8631718 L22.4356541,55.0792035 C22.6183556,54.6419362 23.0740828,54.3894297 23.5400741,54.4592283 C25.1720702,54.7117347 26.8287001,54.7117347 28.4606962,54.4592283 C28.9225819,54.3873768 29.3844676,54.6439891 29.5651162,55.0812564 L30.3020804,56.859066 C30.6674833,57.7315477 31.7267412,58.1831853 32.5930334,57.8136636 L35.345872,56.6722523 C36.2367982,56.3006778 36.6658387,55.270123 36.298383,54.3750595 L35.5614187,52.6013556 C35.3828229,52.1681941 35.5203622,51.6631812 35.9021877,51.3839871 C37.2242071,50.4047547 38.3963703,49.2325499 39.3878849,47.8961133 C39.6670692,47.5163272 40.174117,47.3828888 40.6072631,47.5573852 L42.3850098,48.2984813 C42.8119974,48.4770835 43.2882529,48.4811893 43.7234518,48.2984813 C44.1586508,48.1178263 44.4953141,47.7811511 44.6718571,47.3479896 L45.8152807,44.5930004 C45.9918237,44.1618919 45.9918237,43.6794608 45.8111751,43.233982 C45.6387378,42.8090321 45.2979688,42.4703039 44.8566114,42.2855431 L42.3316363,41.2365122 C41.8061131,41.018905 41.559774,40.4194588 41.7773735,39.8959698 C41.994973,39.3704279 42.6005564,39.1281859 43.1178684,39.3416873 L45.6469491,40.3907182 C46.5974072,40.7910333 47.3302658,41.5239179 47.7120913,42.4600394 C48.0959696,43.4084783 48.0959696,44.4431389 47.7120913,45.3751546 L46.5707204,48.1301437 C46.1847893,49.0683181 45.4539835,49.8032556 44.5117367,50.1953591 C43.5653843,50.5833568 42.5287075,50.5813039 41.5946721,50.1953591 L40.5415727,49.7560389 C39.7122313,50.7824879 38.7802487,51.7145036 37.7599945,52.5397686 L38.1972463,53.5929053 C38.9896368,55.5328939 38.0638127,57.7623412 36.1341569,58.5691301 L33.3813183,59.7084885 C32.9173798,59.9014609 32.4288074,60 31.9258652,60 C30.3841935,60 29.0026421,59.0761959 28.4052699,57.6473789 L27.9680182,56.5942422 C26.6624213,56.7338393 25.3404019,56.7338393 24.0286465,56.5942422 L23.5913948,57.6473789 C23.2095693,58.5814475 22.4767106,59.3143321 21.5344639,59.7043827 C20.5922171,60.0923804 19.5616988,60.0944333 18.6235577,59.7105414 L15.8686662,58.5691301 C14.9161553,58.168815 14.1832967,57.4359304 13.8014712,56.4998089 C13.4175929,55.55137 13.4175929,54.5167094 13.803524,53.5846937 L14.2407758,52.5295041 C13.2123104,51.7001334 12.2803277,50.7681177 11.455092,49.7457744 L10.4040454,50.1830417 C8.46001994,50.9795661 6.22244044,50.055762 5.42594425,48.1137205 L4.28867907,45.4059481 C3.4942357,43.4618536 4.42005988,41.2324064 6.3497156,40.4276704 L7.40281495,39.9883502 C7.25911718,38.6786013 7.25911718,37.3606408 7.40281495,36.0488389 L6.35176843,35.6136246 C5.40131034,35.2133094 4.67050456,34.478372 4.28662624,33.5463563 C3.90480075,32.5958645 3.90480075,31.5632568 4.28457342,30.6312411 L5.42799707,27.876252 C5.82624517,26.9237073 6.5611566,26.1908227 7.49724491,25.8089837 C8.44565017,25.4271446 9.47411561,25.4271446 10.4102039,25.8089837 L11.4674089,26.2483038 C12.2967503,25.2218548 13.2307858,24.2877862 14.2510399,23.4645741 L13.8137882,22.4093846 C13.4299098,21.4568399 13.4299098,20.4242322 13.8117353,19.4942694 C14.2120363,18.5376189 14.9469477,17.8047343 15.883036,17.4228953 L18.6276633,16.2835369 C20.569636,15.4911183 22.7969514,16.4169753 23.6016589,18.3466994 Z M25.912319,28.0257029 L25.9307944,30.0786009 L25.9225831,30.0786009 C23.8061203,30.0991299 21.8230911,30.9346594 20.3471097,32.433275 C18.8567586,33.9401021 18.0499983,35.9334661 18.0684737,38.0417923 C18.089002,40.1644889 18.9245019,42.1496412 20.4251171,43.6277278 C21.9134154,45.0955499 23.8841276,45.9043917 25.9759565,45.9043917 C28.1540041,45.8838627 30.1390861,45.0483332 31.6212259,43.5497177 C33.1095242,42.0408376 33.9162846,40.0474737 33.8937035,37.9391474 C33.887545,37.3725476 34.3432722,36.9085926 34.909852,36.9024339 L34.9201161,36.9024339 C35.4825902,36.9024339 35.9403702,37.3561244 35.9465287,37.9186184 C35.9732154,40.5771214 34.9570669,43.0898685 33.0828375,44.9908521 C31.2168194,46.8795182 28.7205839,47.9326549 26.0539639,47.9572897 C23.3421818,47.9572897 20.8582632,46.9390523 18.9840338,45.0893912 C17.0954346,43.2253598 16.0402824,40.7290358 16.0156485,38.0623213 C15.9930674,35.4017655 17.0112687,32.8890183 18.8854982,30.9900877 C20.7453578,29.1034744 23.2415933,28.0503377 25.912319,28.0257029 Z" fill="#04246A"></path>
        <path d="M36.4996713,31.2170487 C36.674395,31.2170487 36.8491186,31.2596705 37.0075889,31.3530325 C37.9441888,31.8929083 38.9193905,32.2968004 39.9088139,32.552531 C40.3537496,32.6702483 40.6686585,33.0741404 40.6686585,33.5368911 L40.6686585,34.7079752 C40.6686585,35.4041309 41.2354945,35.9703916 41.9323573,35.9703916 L44.077801,35.9703916 C44.7746639,35.9703916 45.3435315,35.4041309 45.3435315,34.7079752 L45.3435315,33.5247135 C45.3435315,33.0639924 45.6503137,32.6641595 46.0952495,32.5444126 C47.1354646,32.2643266 48.1147296,31.8604346 49.0005378,31.3428844 C49.3946818,31.1115091 49.9025993,31.1744269 50.2317299,31.5032235 L51.0606513,32.3313037 C51.5380938,32.8062321 52.3792053,32.796084 52.824141,32.3414518 L54.3499253,30.8172159 C54.8415895,30.3260506 54.8415895,29.5263849 54.3499253,29.0352197 L53.5189722,28.2071394 C53.193905,27.8803725 53.1288915,27.3770296 53.3584703,26.9792264 C53.8968629,26.0476361 54.3031969,25.0734241 54.561219,24.0809456 C54.6770242,23.6364613 55.0813266,23.321872 55.5445474,23.321872 L56.704631,23.321872 C57.4014939,23.321872 57.9683298,22.7556113 57.9683298,22.0594556 L57.9683298,19.9283668 C57.9683298,19.2322111 57.4014939,18.6639207 56.704631,18.6639207 L55.5445474,18.6639207 C55.0853899,18.6639207 54.6831192,18.3574499 54.5652823,17.9149952 C54.2808485,16.8656877 53.8745145,15.889446 53.3605019,15.0126552 C53.1268599,14.6128223 53.1918733,14.1054202 53.5189722,13.7806829 L54.3499253,12.9526027 C54.8415895,12.4614374 54.8415895,11.6617717 54.3499253,11.1706065 L52.8342994,9.65651862 C52.3588886,9.17956065 51.5157454,9.18970869 51.0708097,9.64637058 L50.2317299,10.4845989 C49.904631,10.8113658 49.4048402,10.8783429 49.0046011,10.6449379 C48.0700329,10.1070917 47.0948312,9.70117001 46.1033762,9.44543935 C45.6564087,9.32975167 45.3435315,8.9258596 45.3435315,8.46310888 L45.3435315,7.29202483 C45.3435315,6.59586915 44.7746639,6.0296084 44.077801,6.0296084 L41.9323573,6.0296084 C41.2354945,6.0296084 40.6686585,6.59586915 40.6686585,7.29202483 L40.6686585,8.46310888 C40.6686585,8.92180038 40.3598446,9.32366285 39.9189722,9.44138013 C38.8685987,9.72552531 37.8913654,10.1294174 37.0116522,10.6429083 C36.6175082,10.8742837 36.1095907,10.8113658 35.7804601,10.4845989 L34.949507,9.65651862 C34.4740962,9.17550143 33.6329848,9.18970869 33.188049,9.64637058 L31.6622647,11.1706065 C31.1706005,11.6617717 31.1706005,12.4614374 31.6622647,12.9526027 L32.4911861,13.7806829 C32.818285,14.1054202 32.8832985,14.6067335 32.6516881,15.0065664 C32.1132955,15.9401862 31.7089931,16.9143983 31.4530027,17.9048472 C31.3351658,18.351361 30.9308635,18.6639207 30.4676427,18.6639207 L29.295369,18.6639207 C28.5985061,18.6639207 28.0316702,19.2322111 28.0316702,19.9283668 L28.0316702,22.0716332 C28.0316702,22.7677889 28.5985061,23.3340497 29.295369,23.3340497 L30.4676427,23.3340497 C30.9268001,23.3340497 31.3290708,23.6425501 31.4489393,24.0829752 C31.7313415,25.1322827 32.1376755,26.1085244 32.6496564,26.9873448 C32.8832985,27.3831184 32.818285,27.8884909 32.4911861,28.2152579 L31.6622647,29.0473973 C31.1706005,29.5385626 31.1706005,30.3361987 31.6622647,30.8293935 L33.1778906,32.3434814 C33.6533015,32.8163801 34.4923812,32.8102913 34.9413803,32.3515998 L35.7804601,31.5133715 C35.9775321,31.3185291 36.2375859,31.2170487 36.4996713,31.2170487 M44.077801,4 C45.8961458,4 47.3752017,5.47552531 47.3752017,7.29202483 L47.3752017,7.70403534 C48.0375261,7.91917383 48.6917239,8.19114136 49.3296684,8.51384909 L49.6242605,8.22158548 C50.8107559,6.99976122 53.0171497,6.9693171 54.2706902,8.22158548 L55.7863161,9.73567335 C57.0703316,11.0183859 57.0703316,13.1048233 55.7863161,14.3875358 L55.4937556,14.681829 C55.8066328,15.29883 56.0768449,15.9523639 56.3003287,16.6343123 L56.704631,16.6343123 C58.5229758,16.6343123 60,18.1118672 60,19.9283668 L60,22.0594556 C60,23.8759551 58.5229758,25.3514804 56.704631,25.3514804 L56.304392,25.3514804 C56.089035,26.0151624 55.8167912,26.6686963 55.4937556,27.3059933 L55.7863161,27.6002865 C56.4059755,28.2172875 56.7493278,29.0453677 56.7493278,29.9262178 C56.7493278,30.8070678 56.4059755,31.6331184 55.7863161,32.252149 L54.2706902,33.7662369 C53.0862265,34.9860315 50.8798327,35.0205349 49.6242605,33.7662369 L49.3296684,33.4719436 C48.7079773,33.7885626 48.0537795,34.0564709 47.3752017,34.2817574 L47.3752017,34.7079752 C47.3752017,36.5224451 45.8961458,38 44.077801,38 L41.9323573,38 C40.1140125,38 38.6369883,36.5224451 38.6369883,34.7079752 L38.6369883,34.2959647 C37.9746639,34.0787966 37.3204661,33.806829 36.6825217,33.4841213 L36.3858978,33.7784145 C35.1892441,35.0002388 32.9930087,35.0286533 31.7414999,33.7784145 L30.2258739,32.2643266 C28.9418584,30.9816141 28.9418584,28.8931471 30.2258739,27.6124642 L30.5204661,27.318171 C30.2055572,26.6971108 29.9373768,26.0456065 29.7118614,25.3636581 L29.295369,25.3636581 C27.4790559,25.3636581 26,23.8881328 26,22.0716332 L26,19.9283668 C26,18.1118672 27.4790559,16.6343123 29.295369,16.6343123 L29.707798,16.6343123 C29.9251867,15.97266 30.1953989,15.3191261 30.5204661,14.681829 L30.2258739,14.3875358 C28.9418584,13.1048233 28.9418584,11.0183859 30.2258739,9.73567335 L31.7414999,8.22158548 C32.9279952,6.99773161 35.1364207,6.9713467 36.3879295,8.22361509 L36.68049,8.51384909 C37.3021811,8.2012894 37.9543472,7.93135148 38.6369883,7.70809456 L38.6369883,7.29202483 C38.6369883,5.47552531 40.1140125,4 41.9323573,4 L44.077801,4 Z M42.9955303,14.2448543 C39.2735106,14.2448543 36.2442904,17.2710005 36.2442904,20.9892431 C36.2442904,24.7074857 39.2735106,27.7336318 42.9955303,27.7336318 C46.71755,27.7336318 49.7447386,24.7074857 49.7447386,20.9892431 C49.7447386,17.2710005 46.71755,14.2448543 42.9955303,14.2448543 Z M42.9955303,16.2744628 C45.5960681,16.2744628 47.7130684,18.3893147 47.7130684,20.9892431 C47.7130684,23.5891714 45.5960681,25.7040234 42.9955303,25.7040234 C40.3929609,25.7040234 38.2759606,23.5891714 38.2759606,20.9892431 C38.2759606,18.3893147 40.3929609,16.2744628 42.9955303,16.2744628 Z" fill="#E20101"></path>
    </g>
</svg>