<?xml version="1.0" encoding="UTF-8"?>
<svg width="16px" height="16px" viewBox="0 0 16 16" version="1.1" xmlns="http://www.w3.org/2000/svg" xmlns:xlink="http://www.w3.org/1999/xlink">
    <title>Components / 02 Icon / 16 / Icon-List</title>
    <g id="Components-/-02-Icon-/-16-/-Icon-List" stroke="none" stroke-width="1" fill="none" fill-rule="evenodd">
        <path d="M1.5,12 C1.77614237,12 2,12.2238576 2,12.5 C2,12.7761424 1.77614237,13 1.5,13 L0.5,13 C0.223857625,13 3.38176876e-17,12.7761424 0,12.5 C-3.38176876e-17,12.2238576 0.223857625,12 0.5,12 L1.5,12 Z M15.5,12 C15.7761424,12 16,12.2238576 16,12.5 C16,12.7761424 15.7761424,13 15.5,13 L4.5,13 C4.22385763,13 4,12.7761424 4,12.5 C4,12.2238576 4.22385763,12 4.5,12 L15.5,12 Z M1.5,9 C1.77614237,9 2,9.22385763 2,9.5 C2,9.77614237 1.77614237,10 1.5,10 L0.5,10 C0.223857625,10 3.38176876e-17,9.77614237 0,9.5 C-3.38176876e-17,9.22385763 0.223857625,9 0.5,9 L1.5,9 Z M15.5,9 C15.7761424,9 16,9.22385763 16,9.5 C16,9.77614237 15.7761424,10 15.5,10 L4.5,10 C4.22385763,10 4,9.77614237 4,9.5 C4,9.22385763 4.22385763,9 4.5,9 L15.5,9 Z M1.5,6 C1.77614237,6 2,6.22385763 2,6.5 C2,6.77614237 1.77614237,7 1.5,7 L0.5,7 C0.223857625,7 3.38176876e-17,6.77614237 0,6.5 C-3.38176876e-17,6.22385763 0.223857625,6 0.5,6 L1.5,6 Z M15.5,6 C15.7761424,6 16,6.22385763 16,6.5 C16,6.77614237 15.7761424,7 15.5,7 L4.5,7 C4.22385763,7 4,6.77614237 4,6.5 C4,6.22385763 4.22385763,6 4.5,6 L15.5,6 Z M1.5,3 C1.77614237,3 2,3.22385763 2,3.5 C2,3.77614237 1.77614237,4 1.5,4 L0.5,4 C0.223857625,4 3.38176876e-17,3.77614237 0,3.5 C-3.38176876e-17,3.22385763 0.223857625,3 0.5,3 L1.5,3 Z M15.5,3 C15.7761424,3 16,3.22385763 16,3.5 C16,3.77614237 15.7761424,4 15.5,4 L4.5,4 C4.22385763,4 4,3.77614237 4,3.5 C4,3.22385763 4.22385763,3 4.5,3 L15.5,3 Z" id="Combined-Shape" fill="#04246A"></path>
    </g>
</svg>