<?xml version="1.0" encoding="UTF-8"?>
<svg width="16px" height="16px" viewBox="0 0 16 16" version="1.1" xmlns="http://www.w3.org/2000/svg" xmlns:xlink="http://www.w3.org/1999/xlink">
    <title>Components / 02 Icon / 16 / Info</title>
    <g id="Components-/-02-Icon-/-16-/-Info" stroke="none" stroke-width="1" fill="none" fill-rule="evenodd">
        <path d="M8,0 C12.4182857,0 16,3.58171429 16,8 C16,12.4182857 12.4182857,16 8,16 C3.58171429,16 0,12.4182857 0,8 C0,3.58171429 3.58171429,0 8,0 Z M8,1 C4.14008333,1 1,4.14008333 1,8 C1,11.8599167 4.14008333,15 8,15 C11.8599167,15 15,11.8599167 15,8 C15,4.14008333 11.8599167,1 8,1 Z M8,6 C8.2765,6 8.5,6.24381818 8.5,6.54545455 L8.5,11.4545455 C8.5,11.7561818 8.2765,12 8,12 C7.7235,12 7.5,11.7561818 7.5,11.4545455 L7.5,6.54545455 C7.5,6.24381818 7.7235,6 8,6 Z M8.355,4.145 C8.4,4.195 8.435,4.245 8.46,4.31 C8.485,4.37 8.5,4.435 8.5,4.5 C8.5,4.565 8.485,4.63 8.46,4.69 C8.435,4.75 8.4,4.8045 8.355,4.855 C8.26,4.9495 8.135,5 8,5 C7.935,5 7.87,4.985 7.81,4.96 C7.75,4.935 7.695,4.9 7.645,4.855 C7.6,4.8045 7.565,4.75 7.5345,4.69 C7.51,4.63 7.5,4.565 7.5,4.5 C7.5,4.435 7.51,4.37 7.54,4.31 C7.565,4.245 7.6,4.195 7.645,4.145 C7.83,3.96 8.165,3.96 8.355,4.145 Z" id="Fill-6" fill="#04246A"></path>
    </g>
</svg>