<svg width="16px" height="16px" viewBox="0 0 16 16" version="1.1" xmlns="http://www.w3.org/2000/svg" xmlns:xlink="http://www.w3.org/1999/xlink">
    <title>Key</title>
    <g id="Page-1" stroke="none" stroke-width="1" fill="none" fill-rule="evenodd">
        <g id="A3-Copy-15" transform="translate(-505.000000, -250.000000)" fill="#04246A">
            <g id="Icon/16/2-Copy-20" transform="translate(505.000000, 250.000000)">
                <path d="M13.0510857,14.999875 L2.94749309,14.999875 L2.94749309,9.69971246 L13.0525069,9.69971246 L13.0510857,14.999875 Z M10.1181208,8.69958745 L5.74686143,8.69958745 L5.74686143,4.57407176 C5.74686143,3.57744718 6.72704303,2.76634579 7.93225424,2.76634579 C9.13746546,2.76634579 10.1181208,3.57744718 10.1181208,4.57407176 L10.1181208,8.69958745 Z M3.95467825,4.36304538 C3.95467825,2.5088136 5.73880774,1.00012502 7.93225424,1.00012502 C10.1257008,1.00012502 11.910304,2.5088136 11.910304,4.36304538 L11.910304,8.69958745 L11.0656139,8.69958745 L11.0656139,4.57407176 C11.0656139,3.02587823 9.6600079,1.76622078 7.93225424,1.76622078 C6.20497434,1.76622078 4.79936834,3.02587823 4.79936834,4.57407176 L4.79936834,8.69958745 L3.95467825,8.69958745 L3.95467825,4.36304538 Z M13.0525069,8.69958745 L12.8577971,8.69958745 L12.8577971,4.36304538 C12.8577971,1.95724466 10.6482432,0 7.93225424,0 C5.21673904,0 3.00718516,1.95724466 3.00718516,4.36304538 L3.00718516,8.69958745 L2.94749309,8.69958745 C2.42495065,8.69958745 2,9.14864358 2,9.69971246 L2,14.999875 C2,15.5514439 2.42495065,16 2.94749309,16 L13.0525069,16 C13.5745756,16 14,15.5514439 14,14.999875 L14,9.69971246 C14,9.14864358 13.5745756,8.69958745 13.0525069,8.69958745 L13.0525069,8.69958745 Z" id="Fill-1"/>
            </g>
        </g>
    </g>
</svg>