<?xml version="1.0" encoding="UTF-8"?>
<svg width="16px" height="16px" viewBox="0 0 16 16" version="1.1" xmlns="http://www.w3.org/2000/svg" xmlns:xlink="http://www.w3.org/1999/xlink">
    <title>Components / 02 Icon / 16 / Modify</title>
    <g id="Components-/-02-Icon-/-16-/-Modify" stroke="none" stroke-width="1" fill="none" fill-rule="evenodd">
        <path d="M11.4393398,0.853553391 C12.0251263,0.267766953 12.9748737,0.267766953 13.5606602,0.853553391 L13.5606602,0.853553391 L15.1464466,2.43933983 C15.732233,3.02512627 15.732233,3.97487373 15.1464466,4.56066017 L15.1464466,4.56066017 L5.85355339,13.8535534 C5.8507235,13.8563833 5.84786814,13.8591722 5.84498802,13.86192 C5.83249638,13.8744998 5.81935541,13.8857314 5.80551874,13.8963309 C5.79490473,13.9040686 5.78438611,13.9115542 5.77365658,13.9185844 C5.74651605,13.9363779 5.71719978,13.9516366 5.68569534,13.9642383 L5.73684232,13.9404968 C5.72388516,13.94747 5.71068527,13.9538302 5.69728531,13.9595776 L5.68569534,13.9642383 L0.685695338,15.9642383 C0.277539363,16.1275007 -0.127500736,15.7224606 0.0357616546,15.3143047 L0.0357616546,15.3143047 L2.03576165,10.3143047 C2.03660541,10.3121953 2.03746108,10.3100957 2.03832854,10.3080059 C2.04504065,10.2914424 2.05315228,10.2745678 2.06226397,10.2580983 C2.06831539,10.2470464 2.07456754,10.2365825 2.08113714,10.2264381 C2.09993362,10.1980813 2.12161063,10.1712826 2.14644661,10.1464466 L2.10366907,10.1944813 C2.11426863,10.1806446 2.1255002,10.1675036 2.13729731,10.155072 L2.14644661,10.1464466 Z M2.68169967,11.3892136 L1.397,14.602 L4.60869967,13.3162136 L2.68169967,11.3892136 Z M10.4996997,3.20721356 L3.207,10.5 L5.5,12.793 L12.7926997,5.50021356 L10.4996997,3.20721356 Z M12.8535534,1.56066017 C12.6582912,1.36539803 12.3417088,1.36539803 12.1464466,1.56066017 L12.1464466,1.56066017 L11.2066997,2.50021356 L13.4996997,4.79321356 L14.4393398,3.85355339 C14.5912104,3.70168283 14.6249594,3.47642096 14.5405869,3.29193203 L14.4971953,3.2156945 L14.4393398,3.14644661 Z" id="Combined-Shape" fill="#04246A"></path>
    </g>
</svg>