<svg width="44px" height="41px" viewBox="0 0 44 41">
    <defs>
        <polygon id="path-1" points="6.52149736e-05 0 14.96535 0 14.96535 15.8367347 6.52149736e-05 15.8367347"/>
    </defs>
    <g stroke="none" stroke-width="1" fill="none" fill-rule="evenodd">
        <g transform="translate(-989.000000, -370.000000)">
            <g transform="translate(85.000000, 330.000000)">
                <g transform="translate(904.000000, 40.800000)">
                    <!-- <circle id="Oval" stroke="#04246A" stroke-width="0.8" cx="20" cy="20" r="19.6"/>
                    <circle id="Oval-Copy-8" stroke="#FFFFFF" stroke-width="1.02399995" fill="#E20101" cx="36.8" cy="8.8" r="6.11199998"/>
                    <text id="11" font-family="Roboto-Bold, Roboto" font-size="6.4" font-weight="bold" line-spacing="6.4" fill="#FFFFFF">
                        <tspan x="32.8" y="11.6">11</tspan>
                    </text> -->
                    <g transform="translate(11.200000, 12.000000)">
                        <mask id="mask-2" fill="white">
                            <use xlink:href="#path-1"/>
                        </mask>
                        <g id="Clip-2"/>
                        <path d="M11.069495,0 C10.5200783,0 10.0906783,0.223346939 9.77812833,0.417959184 C9.482995,0.601142857 9.24486167,0.856489796 9.060245,1.11053061 C8.567195,1.13371429 7.89237833,1.24734694 7.18367833,1.61338776 C6.14121167,2.1515102 5.145295,3.50008163 4.29346167,4.72163265 C4.174395,4.89240816 4.08097833,5.02889796 4.01891167,5.10726531 C3.706045,5.504 3.40806167,5.85926531 2.92482833,6.19004082 C2.28642833,6.62857143 2.14171167,6.69779592 1.711995,6.90253061 C1.585645,6.96293878 1.43997833,7.0324898 1.26042833,7.12065306 C0.529245,7.48114286 0.225561667,8.02710204 0.0995283333,8.42155102 C-0.104405,9.06155102 0.037145,9.70840816 0.237911667,10.1005714 C0.377245,10.3732245 0.604611667,10.5861224 0.880111667,10.7030204 L3.953995,12.0071837 C3.64207833,13.5405714 4.38022833,15.0083265 5.76406167,15.5915102 C6.150395,15.754449 6.554145,15.8367347 6.96486167,15.8367347 C8.01492833,15.8367347 9.00451167,15.2767347 9.559945,14.3719184 L12.6870283,15.6835918 C12.8409283,15.7482449 13.0030617,15.7802449 13.1648783,15.7802449 C13.3868617,15.7802449 13.6082117,15.7198367 13.8051783,15.6013061 C14.600645,15.1216327 15.2602617,14.0545306 14.8289617,12.8450612 C14.776395,12.6977959 14.7292117,12.5707755 14.6855117,12.4522449 C14.519895,12.0071837 14.428695,11.7619592 14.2649783,10.9750204 C14.141795,10.3849796 14.168395,9.91673469 14.2124117,9.40897959 C14.219695,9.32081633 14.233945,9.18726531 14.2516783,9.01942857 C14.4556117,7.08146939 14.547445,5.61044898 14.333695,4.72881633 C14.1462283,3.95526531 13.6937117,3.32897959 13.2959783,2.90122449 C13.3355617,2.58416327 13.3374617,2.22693878 13.2491117,1.88016327 C13.1522117,1.49910204 12.924845,0.603755102 11.909295,0.176 C11.6334783,0.0594285714 11.3503783,0 11.069495,0 M5.20767833,12.2432653 L8.501645,13.6372245 C8.17611167,14.1887347 7.59217833,14.516898 6.96486167,14.516898 C6.727045,14.516898 6.48257833,14.469551 6.24381167,14.3689796 C5.37646167,14.0035918 5.016095,13.1124898 5.20767833,12.2432653 M11.069495,1.31983673 C11.1812783,1.31983673 11.2997117,1.34367347 11.4301783,1.39885714 C11.8253783,1.56506122 11.923545,1.84555102 12.0179117,2.21779592 C12.1379283,2.68734694 11.874145,3.35967347 11.874145,3.35967347 C11.874145,3.35967347 12.859295,4.06367347 13.098695,5.05077551 C13.3384117,6.03787755 12.994195,8.70204082 12.9441617,9.29142857 C12.8931783,9.8795102 12.860245,10.4865306 13.0204783,11.253551 C13.2500617,12.3562449 13.3776783,12.5825306 13.634495,13.3025306 C13.8913117,14.0225306 13.1648783,14.4604082 13.1648783,14.4604082 L7.17797833,11.9487347 L1.36271167,9.48179592 C1.36271167,9.48179592 0.974161667,8.72326531 1.80762833,8.31281633 C2.64077833,7.90204082 2.718995,7.91477551 3.62656167,7.29110204 C4.25831167,6.85877551 4.64337833,6.40065306 5.00501167,5.94285714 C5.36601167,5.48440816 6.69157833,3.34171429 7.75146167,2.79477551 C8.33507833,2.49306122 8.88702833,2.42546939 9.265445,2.42546939 C9.57387833,2.42546939 9.767045,2.47053061 9.767045,2.47053061 C9.767045,2.47053061 10.0308283,1.7995102 10.4333117,1.54938776 C10.6464283,1.41681633 10.8440283,1.31983673 11.069495,1.31983673" id="Fill-1" fill="#04246A" mask="url(#mask-2)"/>
                    </g>
                </g>
            </g>
        </g>
    </g>
</svg>