<?xml version="1.0" encoding="UTF-8"?>
<svg width="28px" height="28px" viewBox="0 0 64 64" version="1.1" xmlns="http://www.w3.org/2000/svg" xmlns:xlink="http://www.w3.org/1999/xlink">
    <title>Components / 02 Icon / 64 / Optimization</title>
    <g id="Components-/-02-Icon-/-64-/-Optimization" stroke="none" stroke-width="1" fill="none" fill-rule="evenodd">
        <g id="Group" transform="translate(5.000000, 4.000000)">
            <path d="M27.7019,54.9059853 C28.2639,54.8919853 28.7229,55.3069853 28.7479,55.8579853 C28.7711143,56.3705567 28.4063184,56.8106996 27.9121241,56.891779 L27.7959,56.9039853 L27.2779,56.9239853 C27.2669,56.9249853 27.2559,56.9249853 27.2449,56.9249853 C26.7079,56.9249853 26.2639,56.4979853 26.2469,55.9559853 C26.2292571,55.4443424 26.6022112,55.0094394 27.0975425,54.935509 L27.2139,54.9249853 L27.7019,54.9059853 Z M22.7399297,54.6871997 L22.8595,54.6955853 L23.3425,54.7565853 C23.8915,54.8205853 24.2835,55.3175853 24.2195,55.8655853 C24.1595,56.3745853 23.7285,56.7495853 23.2275,56.7495853 L23.169375,56.7479603 L23.1105,56.7425853 L22.5915,56.6775853 C22.0445,56.6045853 21.6605,56.1005853 21.7345,55.5535853 C21.7970714,55.0847281 22.1645408,54.7370955 22.6234271,54.6920517 L22.7399297,54.6871997 Z M32.9649,55.1761853 C33.0679714,55.6785424 32.7744102,56.1696904 32.2979915,56.3261641 L32.1849,56.3561853 L31.9349,56.4061853 C31.8709,56.4191853 31.8059,56.4251853 31.7429,56.4251853 C31.2739,56.4251853 30.8549,56.0941853 30.7629,55.6161853 C30.6644714,55.1128996 30.9626755,54.624272 31.4397338,54.4721663 L31.5529,54.4431853 L31.7849,54.3971853 C32.3269,54.2821853 32.8529,54.6351853 32.9649,55.1761853 Z M18.4895383,53.7285289 L18.603,53.7566853 L19.071,53.8966853 C19.601,54.0506853 19.906,54.6056853 19.752,55.1356853 C19.625,55.5726853 19.225,55.8566853 18.792,55.8566853 C18.7306667,55.8566853 18.668,55.8509075 18.6054815,55.8390556 L18.512,55.8166853 L18.015,55.6676853 C17.487,55.5046853 17.191,54.9456853 17.353,54.4176853 C17.5043571,53.9283281 17.9971633,53.6364251 18.4895383,53.7285289 Z M14.4487202,52.0810859 L14.5568,52.1269853 L14.9968,52.3429853 C15.4938,52.5819853 15.7038,53.1799853 15.4648,53.6769853 C15.2928,54.0359853 14.9348,54.2439853 14.5618,54.2439853 C14.4538,54.2439853 14.3429875,54.2265478 14.2356906,54.1895634 L14.1298,54.1459853 L13.6658,53.9179853 C13.1718,53.6729853 12.9698,53.0719853 13.2158,52.5779853 C13.4433,52.119271 13.9751724,51.91147 14.4487202,52.0810859 Z M10.8425,49.8585853 C10.9715,49.9535853 11.1025,50.0465853 11.2335,50.1395853 C11.6855,50.4565853 11.7945,51.0805853 11.4775,51.5325853 C11.2825,51.8095853 10.9725,51.9575853 10.6575,51.9575853 C10.4595,51.9575853 10.2595,51.8985853 10.0845,51.7755853 C9.9405,51.6745853 9.7975,51.5735853 9.6565,51.4695853 C9.2125,51.1425853 9.1165,50.5165853 9.4445,50.0715853 C9.7715,49.6275853 10.3965,49.5295853 10.8425,49.8585853 Z M41.321,34.9111853 C45.975,34.9111853 49.762,38.6981853 49.762,43.3531853 C49.762,48.0071853 45.975,51.7941853 41.321,51.7941853 C36.667,51.7941853 32.88,48.0071853 32.88,43.3531853 C32.88,38.6981853 36.667,34.9111853 41.321,34.9111853 Z M41.321,36.9111853 C37.769,36.9111853 34.88,39.8011853 34.88,43.3531853 C34.88,46.9041853 37.769,49.7941853 41.321,49.7941853 C44.873,49.7941853 47.762,46.9041853 47.762,43.3531853 C47.762,39.8011853 44.873,36.9111853 41.321,36.9111853 Z M7.60767333,47.088778 L7.7019,47.1710853 L7.8769,47.3440853 C8.2699,47.7320853 8.2759,48.3650853 7.8889,48.7580853 C7.6929,48.9580853 7.4339,49.0570853 7.1759,49.0570853 C6.96506667,49.0570853 6.75353889,48.9911131 6.57603889,48.8580112 L6.4739,48.7700853 L6.3509,48.6490853 C5.9609,48.2590853 5.9289,47.5970853 6.3179,47.2060853 C6.67605385,46.8451622 7.21740296,46.7892805 7.60767333,47.088778 Z M23.5437,27.7434853 C24.0572,27.7434853 24.479302,28.129771 24.5369824,28.6269168 L24.5437,28.7434853 L24.5437,40.2004853 C24.5437,40.7130567 24.1582765,41.1359547 23.6604533,41.1937535 L23.5437,41.2004853 L20.1307,41.2004853 C19.6172,41.2004853 19.195098,40.8141996 19.1374176,40.3170538 L19.1307,40.2004853 L19.1307,28.7434853 C19.1307,28.2309138 19.5161235,27.8080159 20.0139467,27.7502171 L20.1307,27.7434853 L23.5437,27.7434853 Z M22.5437,29.7434853 L21.1307,29.7434853 L21.1307,39.2004853 L22.5437,39.2004853 L22.5437,29.7434853 Z M38.1785,20.0083853 C39.6205,20.0083853 40.7945,21.1823853 40.7945,22.6253853 C40.7945,24.0673853 39.6205,25.2413853 38.1785,25.2413853 C36.7355,25.2413853 35.5615,24.0673853 35.5615,22.6253853 C35.5615,21.1823853 36.7355,20.0083853 38.1785,20.0083853 Z M5.5818,18.3136853 C6.1348,18.3136853 6.5818,18.7616853 6.5818,19.3136853 C6.5818,19.8262567 6.19637653,20.2491547 5.69855328,20.3069535 L5.5818,20.3136853 L5.2048,20.3136853 C4.6518,20.3136853 4.2048,19.8656853 4.2048,19.3136853 C4.2048,18.8011138 4.59022347,18.3782159 5.08804672,18.3204171 L5.2048,18.3136853 L5.5818,18.3136853 Z M18.1716,18.3136853 C18.7246,18.3136853 19.1716,18.7616853 19.1716,19.3136853 C19.1716,19.8262567 18.7861765,20.2491547 18.2883533,20.3069535 L18.1716,20.3136853 L8.9956,20.3136853 C8.4426,20.3136853 7.9956,19.8656853 7.9956,19.3136853 C7.9956,18.8011138 8.38102347,18.3782159 8.87884672,18.3204171 L8.9956,18.3136853 L18.1716,18.3136853 Z M9.4117,6.81858528 C9.74308462,7.20627758 9.72597219,7.77375687 9.39103728,8.14113057 L9.3007,8.22858528 L9.1167,8.38558528 C8.9277,8.54958528 8.6937,8.63058528 8.4617,8.63058528 C8.1827,8.63058528 7.9037,8.51358528 7.7057,8.28558528 C7.37246923,7.9006622 7.38517929,7.33254386 7.71708826,6.96348241 L7.8067,6.87558528 L8.0017,6.70758528 C8.4207,6.34958528 9.0517,6.39858528 9.4117,6.81858528 Z M13.048,4.39518528 C13.3135714,4.83439956 13.2014796,5.39519038 12.8062019,5.70285073 L12.71,5.76918528 L12.313,6.01418528 C12.147,6.11918528 11.963,6.16918528 11.78,6.16918528 C11.448,6.16918528 11.124,6.00418528 10.933,5.70318528 C10.6590714,5.26954242 10.7602194,4.70656283 11.149973,4.39215612 L11.245,4.32418528 L11.675,4.05818528 C12.144,3.77218528 12.761,3.92318528 13.048,4.39518528 Z M41.2563238,4.09361822 L41.3591,4.14868528 L41.5591,4.27268528 C42.0281,4.56468528 42.1811,5.18868528 41.8891,5.65668528 C41.6991,5.96268528 41.3751,6.13268528 41.0421,6.13268528 C40.90935,6.13268528 40.7749125,6.10568528 40.647225,6.04915403 L40.5221,5.98268528 L40.3181,5.85668528 C39.8461,5.56868528 39.6971,4.95368528 39.9851,4.48168528 C40.2525286,4.04339956 40.8027735,3.88361895 41.2563238,4.09361822 Z M37.2115749,2.0486078 L37.3224,2.08678528 L37.7834,2.28278528 C38.2904,2.50278528 38.5234,3.09178528 38.3024,3.59878528 C38.1394,3.97578528 37.7714,4.20078528 37.3844,4.20078528 C37.2957333,4.20078528 37.2061778,4.18878528 37.1181037,4.16419268 L36.9874,4.11778528 L36.5544,3.93478528 C36.0444,3.72278528 35.8024,3.13778528 36.0144,2.62778528 C36.2121857,2.15328528 36.7281398,1.91245364 37.2115749,2.0486078 Z M17.0213,2.57788528 C17.2125857,3.05424242 17.0124122,3.59009446 16.5721036,3.82995015 L16.4663,3.87988528 L16.0393,4.05788528 C15.9103,4.11288528 15.7773,4.13888528 15.6453,4.13888528 C15.2573,4.13888528 14.8883,3.91088528 14.7253,3.53188528 C14.5083,3.02388528 14.7443,2.43588528 15.2513,2.21888528 C15.4073,2.15288528 15.5633,2.08788528 15.7203,2.02388528 C16.2283,1.81788528 16.8143,2.06588528 17.0213,2.57788528 Z M33.0085,0.698185277 C33.1735,0.736185277 33.3365,0.777185277 33.4995,0.818185277 C34.0345,0.956185277 34.3575,1.50018528 34.2205,2.03518528 C34.1045,2.48718528 33.6975,2.78718528 33.2525,2.78718528 L33.128375,2.77956028 L33.0035,2.75618528 L32.5515,2.64518528 C32.0145,2.51918528 31.6805,1.98018528 31.8065,1.44318528 C31.9325,0.905185277 32.4745,0.573185277 33.0085,0.698185277 Z M21.2319,1.41418528 C21.3461143,1.91375671 21.0636959,2.41160364 20.5920148,2.57865649 L20.4799,2.61118528 L20.0259,2.72018528 C19.9449,2.74018528 19.8639,2.74918528 19.7839,2.74918528 C19.3359,2.74918528 18.9279,2.44518528 18.8139,1.99018528 C18.6904,1.49247099 18.9635327,0.989583236 19.4323333,0.812993586 L19.5439,0.778185277 L20.0349,0.661185277 C20.5699,0.539185277 21.1089,0.875185277 21.2319,1.41418528 Z M28.4175571,0.0117016038 L28.5329,0.0128852772 L29.0359,0.0538852772 C29.5859,0.103885277 29.9919,0.589885277 29.9419,1.13988528 C29.8949,1.65888528 29.4589,2.04988528 28.9469,2.04988528 L28.901775,2.04901028 L28.8559,2.04588528 L28.3889,2.00788528 C27.8379,1.96788528 27.4239,1.48888528 27.4639,0.937885277 C27.4981857,0.465599563 27.8601449,0.0961709915 28.3048096,0.0235587466 L28.4175571,0.0117016038 Z M25.5755,0.930185277 C25.6107857,1.44182813 25.2546122,1.89052711 24.7631895,1.98244147 L24.6475,1.99718528 L24.1795,2.03318528 C24.1505,2.03618528 24.1215,2.03718528 24.0935,2.03718528 C23.5785,2.03718528 23.1425,1.64318528 23.0985,1.12118528 C23.0548571,0.610470992 23.4035357,0.156664869 23.8939304,0.0568102772 L24.0095,0.0401852772 L24.5085,0.00218527724 C25.0405,-0.0338147228 25.5365,0.379185277 25.5755,0.930185277 Z" id="Red" fill="#E20101"></path>
            <path d="M48.442,5.56768528 C51.858,5.56768528 54.636,8.34668528 54.636,11.7626853 C54.636,14.8366853 52.384,17.3876853 49.442,17.8676853 L49.442,17.8676853 L49.442,33.0086853 C52.509,35.4216853 54.489,39.1566853 54.489,43.3526853 C54.489,45.7366853 53.842,47.9686853 52.73,49.8996853 L52.73,49.8996853 L52.718,49.9336853 C52.707,49.9546853 52.689,49.9686853 52.675,49.9886853 C50.387,53.8886853 46.161,56.5206853 41.321,56.5206853 C36.484,56.5206853 32.259,53.8916853 29.97,49.9946853 C29.955,49.9726853 29.936,49.9566853 29.923,49.9336853 C29.916,49.9216853 29.917,49.9076853 29.91,49.8956853 C28.956,48.2386853 28.355,46.3596853 28.204,44.3526853 L28.204,44.3526853 L1,44.3526853 C0.447,44.3526853 -2.84217094e-14,43.9046853 -2.84217094e-14,43.3526853 L-2.84217094e-14,43.3526853 L-2.84217094e-14,12.7216853 C-2.84217094e-14,12.1696853 0.447,11.7216853 1,11.7216853 L1,11.7216853 L42.25,11.7216853 C42.272,8.32468528 45.04,5.56768528 48.442,5.56768528 Z M42.321,32.2356853 L42.321,34.9766853 C41.993,34.9376853 41.66,34.9116853 41.321,34.9116853 C40.982,34.9116853 40.649,34.9376853 40.321,34.9766853 L40.321,34.9766853 L40.321,32.2356853 C34.631,32.7436853 30.153,37.5326853 30.153,43.3526853 C30.153,45.0286853 30.535,46.6136853 31.199,48.0416853 L31.199,48.0416853 L33.564,46.6766853 C33.83,47.2946853 34.174,47.8716853 34.573,48.4036853 L34.573,48.4036853 L32.199,49.7736853 C34.222,52.6406853 37.553,54.5206853 41.321,54.5206853 C45.089,54.5206853 48.42,52.6406853 50.443,49.7746853 L50.443,49.7746853 L48.069,48.4036853 C48.468,47.8716853 48.812,47.2946853 49.078,46.6766853 L49.078,46.6766853 L51.443,48.0416853 C52.107,46.6136853 52.489,45.0286853 52.489,43.3526853 C52.489,37.5326853 48.011,32.7436853 42.321,32.2356853 L42.321,32.2356853 Z M41.321,38.6698853 C43.903,38.6698853 46.004,40.7708853 46.004,43.3528853 C46.004,45.9348853 43.903,48.0358853 41.321,48.0358853 C38.738,48.0358853 36.637,45.9348853 36.637,43.3528853 C36.637,40.7708853 38.738,38.6698853 41.321,38.6698853 Z M41.321,40.6698853 C39.842,40.6698853 38.637,41.8728853 38.637,43.3528853 C38.637,44.8318853 39.842,46.0358853 41.321,46.0358853 C42.8,46.0358853 44.004,44.8318853 44.004,43.3528853 C44.004,41.8728853 42.8,40.6698853 41.321,40.6698853 Z M42.571,13.7216853 L2,13.7216853 L2,42.3526853 L28.204,42.3526853 C28.233,41.9626853 28.282,41.5796853 28.344,41.2006853 L28.344,41.2006853 L27.499,41.2006853 C26.946,41.2006853 26.499,40.7526853 26.499,40.2006853 L26.499,40.2006853 L26.499,32.1056853 C26.499,31.5536853 26.946,31.1056853 27.499,31.1056853 L27.499,31.1056853 L30.912,31.1056853 C31.465,31.1056853 31.912,31.5536853 31.912,32.1056853 L31.912,32.1056853 L31.912,34.1586853 C34.304,31.7106853 37.636,30.1856853 41.321,30.1856853 C43.531,30.1856853 45.611,30.7386853 47.442,31.7046853 L47.442,31.7046853 L47.442,17.8676853 C46.594,17.7286853 45.803,17.4206853 45.108,16.9746853 L45.108,16.9746853 L40.584,21.5976853 C40.311,20.9626853 39.794,20.4596853 39.152,20.2006853 L39.152,20.2006853 L43.618,15.6376853 C43.162,15.0716853 42.805,14.4246853 42.571,13.7216853 L42.571,13.7216853 Z M8.8067,32.5484853 C9.3587,32.5484853 9.8067,32.9954853 9.8067,33.5484853 L9.8067,33.5484853 L9.8067,40.2004853 C9.8067,40.7524853 9.3587,41.2004853 8.8067,41.2004853 L8.8067,41.2004853 L5.3937,41.2004853 C4.8407,41.2004853 4.3937,40.7524853 4.3937,40.2004853 L4.3937,40.2004853 L4.3937,33.5484853 C4.3937,32.9954853 4.8407,32.5484853 5.3937,32.5484853 L5.3937,32.5484853 Z M16.1757,34.3644853 C16.7287,34.3644853 17.1757,34.8124853 17.1757,35.3644853 L17.1757,35.3644853 L17.1757,40.2004853 C17.1757,40.7524853 16.7287,41.2004853 16.1757,41.2004853 L16.1757,41.2004853 L12.7617,41.2004853 C12.2087,41.2004853 11.7617,40.7524853 11.7617,40.2004853 L11.7617,40.2004853 L11.7617,35.3644853 C11.7617,34.8124853 12.2087,34.3644853 12.7617,34.3644853 L12.7617,34.3644853 Z M29.912,33.1056853 L28.499,33.1056853 L28.499,39.2006853 L28.835,39.2006853 C29.129,38.3176853 29.516,37.4806853 29.981,36.6916853 C29.941,36.5836853 29.912,36.4696853 29.912,36.3476853 L29.912,36.3476853 L29.912,33.1056853 Z M7.8067,34.5484853 L6.3937,34.5484853 L6.3937,39.2004853 L7.8067,39.2004853 L7.8067,34.5484853 Z M15.1757,36.3644853 L13.7617,36.3644853 L13.7617,39.2004853 L15.1757,39.2004853 L15.1757,36.3644853 Z M33.2678,15.0975853 C34.7098,15.0975853 35.8838,16.2715853 35.8838,17.7145853 C35.8838,18.0685853 35.8108,18.4065853 35.6828,18.7145853 L35.6828,18.7145853 L37.1768,20.2095853 C36.5388,20.4745853 36.0278,20.9845853 35.7628,21.6235853 L35.7628,21.6235853 L34.2678,20.1295853 C33.9598,20.2575853 33.6218,20.3305853 33.2678,20.3305853 C32.9228,20.3305853 32.5958,20.2595853 32.2938,20.1375853 L32.2938,20.1375853 L29.3688,23.1255853 C29.5038,23.4405853 29.5798,23.7875853 29.5798,24.1515853 C29.5798,25.5945853 28.4058,26.7685853 26.9638,26.7685853 C25.5208,26.7685853 24.3478,25.5945853 24.3478,24.1515853 C24.3478,22.7095853 25.5208,21.5355853 26.9638,21.5355853 C27.3088,21.5355853 27.6358,21.6065853 27.9368,21.7275853 L27.9368,21.7275853 L30.8618,18.7405853 C30.7268,18.4245853 30.6508,18.0785853 30.6508,17.7145853 C30.6508,16.2715853 31.8248,15.0975853 33.2678,15.0975853 Z M5.5818,24.7457853 C6.1348,24.7457853 6.5818,25.1937853 6.5818,25.7457853 C6.5818,26.2977853 6.1348,26.7457853 5.5818,26.7457853 L5.5818,26.7457853 L5.2048,26.7457853 C4.6518,26.7457853 4.2048,26.2977853 4.2048,25.7457853 C4.2048,25.1937853 4.6518,24.7457853 5.2048,24.7457853 L5.2048,24.7457853 Z M18.1716,24.7457853 C18.7246,24.7457853 19.1716,25.1937853 19.1716,25.7457853 C19.1716,26.2977853 18.7246,26.7457853 18.1716,26.7457853 L18.1716,26.7457853 L8.9956,26.7457853 C8.4426,26.7457853 7.9956,26.2977853 7.9956,25.7457853 C7.9956,25.1937853 8.4426,24.7457853 8.9956,24.7457853 L8.9956,24.7457853 Z M5.5818,21.5299853 C6.1348,21.5299853 6.5818,21.9779853 6.5818,22.5299853 C6.5818,23.0819853 6.1348,23.5299853 5.5818,23.5299853 L5.5818,23.5299853 L5.2048,23.5299853 C4.6518,23.5299853 4.2048,23.0819853 4.2048,22.5299853 C4.2048,21.9779853 4.6518,21.5299853 5.2048,21.5299853 L5.2048,21.5299853 Z M18.1716,21.5299853 C18.7246,21.5299853 19.1716,21.9779853 19.1716,22.5299853 C19.1716,23.0819853 18.7246,23.5299853 18.1716,23.5299853 L18.1716,23.5299853 L8.9956,23.5299853 C8.4426,23.5299853 7.9956,23.0819853 7.9956,22.5299853 C7.9956,21.9779853 8.4426,21.5299853 8.9956,21.5299853 L8.9956,21.5299853 Z M5.5818,15.0978853 C6.1348,15.0978853 6.5818,15.5458853 6.5818,16.0978853 C6.5818,16.6498853 6.1348,17.0978853 5.5818,17.0978853 L5.5818,17.0978853 L5.2048,17.0978853 C4.6518,17.0978853 4.2048,16.6498853 4.2048,16.0978853 C4.2048,15.5458853 4.6518,15.0978853 5.2048,15.0978853 L5.2048,15.0978853 Z M18.1716,15.0978853 C18.7246,15.0978853 19.1716,15.5458853 19.1716,16.0978853 C19.1716,16.6498853 18.7246,17.0978853 18.1716,17.0978853 L18.1716,17.0978853 L8.9956,17.0978853 C8.4426,17.0978853 7.9956,16.6498853 7.9956,16.0978853 C7.9956,15.5458853 8.4426,15.0978853 8.9956,15.0978853 L8.9956,15.0978853 Z M48.442,7.56768528 C46.13,7.56768528 44.248,9.44968528 44.248,11.7626853 C44.248,14.0746853 46.13,15.9566853 48.442,15.9566853 C50.755,15.9566853 52.636,14.0746853 52.636,11.7626853 C52.636,9.44968528 50.755,7.56768528 48.442,7.56768528 Z" id="Blue" fill="#04246A"></path>
        </g>
    </g>
</svg>