<svg width="64px" height="64px" viewBox="0 0 64 64">
    <g stroke="none" stroke-width="1" fill="none" fill-rule="evenodd">
        <path d="M12.7330966,49.6740738 C17.667798,55.0080357 24.6669765,58.0680138 31.9387461,58.0680138 C37.448695,58.0680138 42.7141137,56.3780259 47.1717806,53.1820487 C47.6047195,52.8680509 48.2080278,52.9680502 48.5207059,53.4020471 C48.833384,53.836044 48.735171,54.4400397 48.3022321,54.7500375 C43.513848,58.184013 37.8555774,60 31.9387461,60 C24.1298116,60 16.609503,56.7120235 11.3100105,50.9820644 C10.9492281,50.5900672 10.9732802,49.9780716 11.3661322,49.6200741 C11.7569798,49.2560767 12.3703098,49.2800766 12.7330966,49.6740738 Z M31.9389466,15.2961193 C35.9055486,15.2961193 38.8840077,16.4881108 40.79415,18.838094 C43.4819789,22.1460704 43.1753138,26.7240377 42.9388009,28.4540253 C43.6643744,29.0300212 43.898883,29.7160163 43.9610177,30.2400126 C44.1975306,32.2579982 42.1250362,34.4219827 41.1890063,35.2879765 C41.0747586,39.3939472 39.42919,41.8879294 38.735686,42.7639231 C39.0643989,46.135899 44.0933046,48.2538839 45.6707254,48.8378797 L45.6707254,48.8378797 L43.4980136,50.1078707 C40.7239979,48.8538796 36.7133003,46.3598974 36.7133003,42.4159256 C36.7133003,42.1539275 36.8175263,41.9039293 36.9999218,41.7159306 C37.0841044,41.6279312 39.1906727,39.3739473 39.1906727,34.8339798 C39.1906727,34.5419818 39.3189509,34.2639838 39.5414334,34.0739852 C40.585698,33.1799916 42.0809406,31.4180042 41.9707015,30.4700109 C41.9586754,30.3720116 41.9266059,30.1020136 41.3874366,29.8260155 C40.984563,29.622017 40.7700979,29.1720202 40.8622978,28.7300234 C40.8723195,28.6780237 41.9346233,23.4080614 39.2307596,20.0900851 C37.7194823,18.2360983 35.2681663,17.296105 31.9389466,17.296105 C28.4914703,17.296105 25.980024,18.2560982 24.470751,20.1480847 C21.9364708,23.3301796 22.9120682,28.2513947 23.0031491,28.6803713 L23.0095823,28.7100235 C23.1138083,29.1560203 22.8993432,29.618017 22.4904565,29.8260155 C21.9512872,30.1020136 21.9192177,30.3720116 21.9071916,30.4700109 C21.7949482,31.4180042 23.2901908,33.1799916 24.3364597,34.0739852 C24.5589422,34.2639838 24.6872204,34.5419818 24.6872204,34.8339798 C24.6872204,39.4279469 26.8559235,41.6959307 26.8779713,41.7159306 C27.0603668,41.9039293 27.1645928,42.1539275 27.1645928,42.4159256 C27.1645928,48.1458847 18.5679501,50.8438654 18.2011547,50.9558646 C18.104946,50.9858644 18.0047287,50.9998643 17.90852,50.9998643 C17.4795899,50.9998643 17.0827292,50.7238663 16.9504423,50.2958693 C16.7880903,49.7658731 17.0847336,49.2078771 17.6138811,49.0458782 C19.6422799,48.4198827 24.8034725,46.1078992 25.1422071,42.7639231 C24.4466988,41.8859294 22.8031345,39.3919472 22.6888868,35.2879765 C21.7528569,34.4219827 19.6803625,32.2579982 19.9168754,30.2400126 C19.9770058,29.7200163 20.2115143,29.0380212 20.9270661,28.4620253 C20.6564793,26.7360376 20.2696404,22.2160699 22.8953345,18.9140935 C24.8014682,16.5141106 27.8440664,15.2961193 31.9389466,15.2961193 Z M44.5585135,6.98477868 C54.0831687,11.7787444 60,21.362676 60,32.0006 C60,38.2565553 57.9776142,44.1725131 54.1513165,49.1104778 C53.9609036,49.358476 53.6762863,49.4844751 53.3856561,49.4844751 C53.1792084,49.4844751 52.9707563,49.4184756 52.7963782,49.2824766 C52.3714567,48.9564789 52.2952915,48.3524832 52.622,47.9304862 C56.1817196,43.3325191 58.0638011,37.8245584 58.0638011,32.0006 C58.0638011,22.0966707 52.5558566,13.1727345 43.6866227,8.70876637 C43.2095882,8.46876808 43.0191752,7.88877222 43.2596968,7.41277562 C43.4982141,6.93677902 44.0794746,6.74478039 44.5585135,6.98477868 Z M21.103649,13.9017293 C21.3922749,14.3357262 21.2720141,14.921722 20.8370709,15.2097199 C15.1667743,18.9476932 11.7834371,25.2256484 11.7834371,31.9976 C11.7834371,34.0055857 12.0780761,35.9895715 12.661341,37.8895579 C12.8156757,38.3875544 12.5350671,38.9155506 12.0339805,39.0675495 C11.9417805,39.0975493 11.8495806,39.1095492 11.7573806,39.1095492 C11.3525026,39.1095492 10.9776898,38.8475511 10.8534203,38.443554 C10.2140337,36.3615688 9.8913339,34.1935843 9.8913339,31.9976 C9.8913339,24.5896529 13.5933622,17.725702 19.7928063,13.6357312 C20.2277495,13.3437333 20.8170275,13.4657324 21.103649,13.9017293 Z M31.93594,10.0007571 C43.1262073,10.0007571 52.5406235,18.3546975 53.8334271,29.4286184 C53.8955619,29.9446147 53.520749,30.4146113 53.0036276,30.4746109 C52.965545,30.4786109 52.9294668,30.4806109 52.8933885,30.4806109 C52.4203627,30.4806109 52.011476,30.1266134 51.9553543,29.6446168 C50.7727898,19.5226891 42.1661253,11.8867437 31.93594,11.8867437 C29.6870631,11.8867437 27.4822818,12.254741 25.3797222,12.9747359 C24.8866529,13.1447347 24.349488,12.8827366 24.1791185,12.3907401 C24.0087491,11.8967436 24.2713185,11.3587474 24.7663921,11.1907486 C27.0633733,10.4007543 29.4766067,10.0007571 31.93594,10.0007571 Z M31.9387461,4 C33.470067,4 35.0033921,4.1259991 36.494626,4.36799737 C37.0217692,4.45399676 37.3785429,4.9519932 37.2943603,5.47798944 C37.2061691,6.0019857 36.7090911,6.3659831 36.181948,6.27198377 C34.7929357,6.04798537 33.3658409,5.9319862 31.9387461,5.9319862 C22.2236779,5.9319862 13.3664701,11.2599481 8.82261627,19.8378869 C8.65024246,20.1658845 8.31351223,20.3538832 7.96676026,20.3538832 C7.81442991,20.3538832 7.66009522,20.3178834 7.51578226,20.241884 C7.04275645,19.9938858 6.86236525,19.4078899 7.11290859,18.9378933 C11.9914883,9.72395911 21.5041175,4 31.9387461,4 Z" fill="#04246A"></path>
        <path d="M53.1833863,33.6800664 C53.7035564,33.7532328 54.0630562,34.2389763 53.9907545,34.7633355 C52.4784454,45.730165 43.073208,54 32.1134856,54 C31.7941534,54 31.4748212,53.9918704 31.1574973,53.979676 C30.6353189,53.9552872 30.2296264,53.5101916 30.2517185,52.9797353 C30.2738107,52.4513113 30.7176624,52.0753174 31.2378325,52.0610906 C31.5290474,52.0753174 31.8202623,52.083447 32.1134856,52.083447 C42.1332868,52.083447 50.7311559,44.5229195 52.1129205,34.4970911 C52.1852221,33.972732 52.667233,33.6109648 53.1833863,33.6800664 Z M4.9981642,30 C5.53239293,30.010162 5.95816921,30.4593224 5.94611894,31.0019731 L5.93808543,31.6503087 C5.93808543,36.9060947 7.45842808,41.9891267 10.332418,46.3465919 C10.629658,46.7957523 10.5091553,47.4054722 10.0653036,47.7062674 C9.89860818,47.8180494 9.71182896,47.8708918 9.52705812,47.8708918 C9.21375105,47.8708918 8.90646911,47.7184618 8.7196899,47.4339258 C5.63281187,42.7553414 4,37.2963154 4,31.6503087 L4.00602514,30.9592927 C4.01807541,30.4186744 4.44987682,30.030486 4.9981642,30 Z" fill="#E20101"></path>
    </g>
</svg>