<?xml version="1.0" encoding="UTF-8"?>
<svg width="16px" height="16px" viewBox="0 0 16 16" version="1.1" xmlns="http://www.w3.org/2000/svg" xmlns:xlink="http://www.w3.org/1999/xlink">
    <title>Components / 02 Icon / 16 / Trash</title>
    <g id="Components-/-02-Icon-/-16-/-Trash" stroke="none" stroke-width="1" fill="none" fill-rule="evenodd">
        <path d="M12,14 L4.5,14 C4.5,13.977 4.498,13.953 4.495,13.929 L3.014,3.562 L12.992,3.562 L12,14 Z M6.5,2.562 L9.5,2.562 L9.5,2 L6.5,2 L6.5,2.562 Z M9.5,1 C10.052,1 10.5,1.449 10.5,2 L10.5,2 L10.5,2.562 L14.5,2.562 C14.776,2.562 15,2.786 15,3.062 C15,3.339 14.776,3.562 14.5,3.562 L14.5,3.562 L13.996,3.562 L12.998,14.047 C13,14.551 12.552,15 12,15 L12,15 L4.5,15 C3.963,15 3.522,14.574 3.501,14.042 L3.501,14.042 L2.005,3.571 C2.005,3.568 2.006,3.565 2.006,3.562 L2.006,3.562 L1.5,3.562 C1.224,3.562 1,3.339 1,3.062 C1,2.786 1.224,2.562 1.5,2.562 L1.5,2.562 L5.5,2.562 L5.5,2 C5.5,1.449 5.948,1 6.5,1 L6.5,1 Z M8,5.5 C7.724,5.5 7.5,5.724 7.5,6 L7.5,6 L7.5,12 L7.50806036,12.0898381 C7.55041975,12.3230123 7.75466667,12.5 8,12.5 C8.276,12.5 8.5,12.276 8.5,12 L8.5,12 L8.5,6 L8.49193964,5.91016187 C8.44958025,5.67698765 8.24533333,5.5 8,5.5 Z M5.54889163,5.50120988 L5.459,5.502 C5.184,5.525 4.979,5.766 5.002,6.042 L5.002,6.042 L5.502,12.042 L5.51611523,12.1264472 C5.57214815,12.3443457 5.77066667,12.5 6,12.5 C6.014,12.5 6.027,12.5 6.041,12.498 C6.316,12.475 6.521,12.234 6.498,11.958 L6.498,11.958 L5.998,5.958 L5.98247874,5.86901235 C5.92082716,5.63948148 5.70255556,5.47711111 5.459,5.502 Z M10.541,5.502 L10.4505487,5.50147325 L10.3642044,5.51697119 C10.1687037,5.57075309 10.0191111,5.74411111 10.002,5.958 L10.002,5.958 L9.502,11.958 L9.50256104,12.0484527 C9.52541975,12.2848642 9.71455556,12.4775556 9.959,12.498 C9.973,12.499 9.986,12.5 10,12.5 C10.258,12.5 10.477,12.303 10.498,12.041 L10.498,12.041 L10.998,6.041 L10.997439,5.95084499 C10.9745802,5.7151358 10.7854444,5.52244444 10.541,5.502 L10.541,5.502 Z" id="Fill-1" fill="#04246A"></path>
    </g>
</svg>