<svg viewBox="0 0 16 16">
    <g stroke="none" stroke-width="1" fill="none" fill-rule="evenodd">
        <path d="M7.8904,2 C6.5924,2 5.5364,3.0555 5.5364,4.3535 C5.5364,5.6515 6.5924,6.7075 7.8904,6.7075 C9.1884,6.7075 10.2439,5.6515 10.2439,4.3535 C10.2439,3.0555 9.1884,2 7.8904,2 M7.8905,8.61 C11.138,8.61 13.7805,11.252 13.7805,14.5 C13.7805,14.7765 13.5565,15 13.2805,15 C13.0045,15 12.7805,14.7765 12.7805,14.5 C12.7805,11.8035 10.587,9.61 7.8905,9.61 C5.194,9.61 3,11.8035 3,14.5 C3,14.7765 2.776,15 2.5,15 C2.224,15 2,14.7765 2,14.5 C2,11.252 4.6425,8.61 7.8905,8.61 Z M7.8904,1 C9.7394,1 11.2439,2.5045 11.2439,4.3535 C11.2439,6.203 9.7394,7.7075 7.8904,7.7075 C6.0409,7.7075 4.5364,6.203 4.5364,4.3535 C4.5364,2.5045 6.0409,1 7.8904,1 Z" fill="currentColor">
        </path>
    </g>
</svg>