<?xml version="1.0" encoding="UTF-8"?>
<svg width="16px" height="16px" viewBox="0 0 16 16" version="1.1" xmlns="http://www.w3.org/2000/svg" xmlns:xlink="http://www.w3.org/1999/xlink">
    <title>Components / 02 Icon / 16 / Warning</title>
    <g id="Components-/-02-Icon-/-16-/-Warning" stroke="none" stroke-width="1" fill="none" fill-rule="evenodd">
        <path d="M7.10557281,0.552786405 C7.47409708,-0.184262135 8.52590292,-0.184262135 8.89442719,0.552786405 L8.89442719,0.552786405 L15.8944272,14.5527864 C16.2268777,15.2176875 15.743382,16 15,16 L15,16 L1,16 C0.256617979,16 -0.226877737,15.2176875 0.105572809,14.5527864 L0.105572809,14.5527864 Z M8,1 L1,15 L15,15 L8,1 Z M8.5,12 L8.5,13 L7.5,13 L7.5,12 L8.5,12 Z M8.5,5 L8.5,11 L7.5,11 L7.5,5 L8.5,5 Z" id="Combined-Shape" fill="#04246A"></path>
    </g>
</svg>